<svg width="230" height="272" viewBox="0 0 230 272" fill="none" xmlns="http://www.w3.org/2000/svg">
<g filter="url(#filter0_f_875_1210)">
<ellipse cx="115.226" cy="201.713" rx="64.9259" ry="20.2469" fill="#9CF3B0"/>
</g>
<g filter="url(#filter1_f_875_1210)">
<ellipse cx="115.289" cy="200.582" rx="46.0363" ry="9.84068" fill="#64FF88"/>
</g>
<g clip-path="url(#clip0_875_1210)">
<rect x="54.7686" width="135.012" height="135.012" rx="29.5338" transform="rotate(5 54.7686 0)" fill="url(#paint0_linear_875_1210)"/>
<rect x="54.7686" width="135.012" height="135.012" rx="29.535" transform="rotate(5 54.7686 0)" stroke="url(#paint1_linear_875_1210)" stroke-width="1.4363"/>
<g filter="url(#filter2_f_875_1210)">
<path d="M148.244 141.783L148.077 143.691L72.4244 137.072L72.5913 135.164L148.244 141.783ZM178.166 116.675L184.785 41.023C186.114 25.827 174.873 12.4301 159.677 11.1007L84.0245 4.48194C68.9472 3.16285 55.6412 14.2186 54.1356 29.2341L54.1022 29.5898L47.4834 105.242C46.154 120.438 57.3952 133.835 72.5913 135.164L72.4244 137.072L72.044 137.037C56.1139 135.439 44.3515 121.421 45.5447 105.456L45.5757 105.075L52.1944 29.4229C53.6049 13.3001 67.7185 1.3405 83.8107 2.5432L84.1914 2.57417L159.844 9.19289L160.224 9.22851C176.281 10.8385 188.103 25.0672 186.692 41.1899L180.074 116.842L180.038 117.223C178.441 133.153 164.423 144.915 148.457 143.722L148.077 143.691L148.244 141.783C163.44 143.113 176.836 131.871 178.166 116.675Z" fill="url(#paint2_linear_875_1210)"/>
</g>
<g filter="url(#filter3_f_875_1210)">
<rect x="49.5889" y="-10.9796" width="112.291" height="47.1886" rx="13.9818" transform="rotate(5 49.5889 -10.9796)" fill="#63FF88" style="mix-blend-mode:screen"/>
</g>
<g filter="url(#filter4_f_875_1210)">
<path d="M78.8438 100.792L170.25 108.789L148.576 132.477L76.5208 127.343L78.8438 100.792Z" fill="#08AC54"/>
</g>
<g filter="url(#filter5_ddii_875_1210)">
<path fill-rule="evenodd" clip-rule="evenodd" d="M90.9151 70.9262C103.682 72.0431 113.127 83.2984 112.01 96.0655C110.893 108.833 99.6373 118.277 86.8702 117.16C74.1031 116.043 64.6589 104.788 65.7758 92.0206C66.8928 79.2535 78.1481 69.8092 90.9151 70.9262ZM89.812 83.5354C84.0088 83.0276 78.8927 87.3205 78.385 93.1237C77.8773 98.9269 82.1702 104.043 87.9734 104.551C93.7766 105.058 98.8926 100.766 99.4003 94.9623C99.9081 89.1591 95.6152 84.0431 89.812 83.5354Z" fill="white"/>
<path fill-rule="evenodd" clip-rule="evenodd" d="M141.352 75.3388C154.119 76.4558 163.563 87.711 162.446 100.478C161.329 113.245 150.074 122.69 137.307 121.573C124.54 120.456 115.096 109.2 116.213 96.4332C117.33 83.6661 128.585 74.2218 141.352 75.3388ZM140.249 87.948C134.446 87.4403 129.33 91.7331 128.822 97.5364C128.314 103.34 132.607 108.456 138.41 108.963C144.213 109.471 149.329 105.178 149.837 99.375C150.345 93.5717 146.052 88.4557 140.249 87.948Z" fill="white"/>
<path d="M95.3278 20.4894C108.095 21.6064 117.539 32.8616 116.422 45.6287C115.305 58.3958 104.05 67.8401 91.2829 66.7231C78.5158 65.6061 69.0715 54.3509 70.1885 41.5838C71.3054 28.8167 82.5607 19.3724 95.3278 20.4894Z" fill="white"/>
</g>
</g>
<rect x="55.7568" y="1.17769" width="132.838" height="132.838" rx="28.4468" transform="rotate(5 55.7568 1.17769)" stroke="url(#paint3_linear_875_1210)" stroke-width="2.17417"/>
<defs>
<filter id="filter0_f_875_1210" x="0.538589" y="131.705" width="229.374" height="140.016" filterUnits="userSpaceOnUse" color-interpolation-filters="sRGB">
<feFlood flood-opacity="0" result="BackgroundImageFix"/>
<feBlend mode="normal" in="SourceGraphic" in2="BackgroundImageFix" result="shape"/>
<feGaussianBlur stdDeviation="24.8806" result="effect1_foregroundBlur_875_1210"/>
</filter>
<filter id="filter1_f_875_1210" x="40.5205" y="162.008" width="149.537" height="77.1462" filterUnits="userSpaceOnUse" color-interpolation-filters="sRGB">
<feFlood flood-opacity="0" result="BackgroundImageFix"/>
<feBlend mode="normal" in="SourceGraphic" in2="BackgroundImageFix" result="shape"/>
<feGaussianBlur stdDeviation="14.3662" result="effect1_foregroundBlur_875_1210"/>
</filter>
<filter id="filter2_f_875_1210" x="44.9174" y="1.91636" width="142.433" height="142.432" filterUnits="userSpaceOnUse" color-interpolation-filters="sRGB">
<feFlood flood-opacity="0" result="BackgroundImageFix"/>
<feBlend mode="normal" in="SourceGraphic" in2="BackgroundImageFix" result="shape"/>
<feGaussianBlur stdDeviation="0.271771" result="effect1_foregroundBlur_875_1210"/>
</filter>
<filter id="filter3_f_875_1210" x="11.2492" y="-45.2065" width="184.43" height="125.25" filterUnits="userSpaceOnUse" color-interpolation-filters="sRGB">
<feFlood flood-opacity="0" result="BackgroundImageFix"/>
<feBlend mode="normal" in="SourceGraphic" in2="BackgroundImageFix" result="shape"/>
<feGaussianBlur stdDeviation="17.6957" result="effect1_foregroundBlur_875_1210"/>
</filter>
<filter id="filter4_f_875_1210" x="43.1826" y="67.4537" width="160.405" height="98.3609" filterUnits="userSpaceOnUse" color-interpolation-filters="sRGB">
<feFlood flood-opacity="0" result="BackgroundImageFix"/>
<feBlend mode="normal" in="SourceGraphic" in2="BackgroundImageFix" result="shape"/>
<feGaussianBlur stdDeviation="16.6689" result="effect1_foregroundBlur_875_1210"/>
</filter>
<filter id="filter5_ddii_875_1210" x="60.4201" y="18.8486" width="112.17" height="116.698" filterUnits="userSpaceOnUse" color-interpolation-filters="sRGB">
<feFlood flood-opacity="0" result="BackgroundImageFix"/>
<feColorMatrix in="SourceAlpha" type="matrix" values="0 0 0 0 0 0 0 0 0 0 0 0 0 0 0 0 0 0 127 0" result="hardAlpha"/>
<feOffset dx="2.39383" dy="6.22395"/>
<feGaussianBlur stdDeviation="3.83012"/>
<feComposite in2="hardAlpha" operator="out"/>
<feColorMatrix type="matrix" values="0 0 0 0 0 0 0 0 0 0.70243 0 0 0 0 0.526823 0 0 0 0.6 0"/>
<feBlend mode="normal" in2="BackgroundImageFix" result="effect1_dropShadow_875_1210"/>
<feColorMatrix in="SourceAlpha" type="matrix" values="0 0 0 0 0 0 0 0 0 0 0 0 0 0 0 0 0 0 127 0" result="hardAlpha"/>
<feOffset dx="2.62159" dy="3.93238"/>
<feGaussianBlur stdDeviation="2.59974"/>
<feComposite in2="hardAlpha" operator="out"/>
<feColorMatrix type="matrix" values="0 0 0 0 0 0 0 0 0 0.838492 0 0 0 0 0.391296 0 0 0 0.4 0"/>
<feBlend mode="plus-darker" in2="effect1_dropShadow_875_1210" result="effect2_dropShadow_875_1210"/>
<feBlend mode="normal" in="SourceGraphic" in2="effect2_dropShadow_875_1210" result="shape"/>
<feColorMatrix in="SourceAlpha" type="matrix" values="0 0 0 0 0 0 0 0 0 0 0 0 0 0 0 0 0 0 127 0" result="hardAlpha"/>
<feOffset dx="-1.59043" dy="-1.55111"/>
<feGaussianBlur stdDeviation="3.43791"/>
<feComposite in2="hardAlpha" operator="arithmetic" k2="-1" k3="1"/>
<feColorMatrix type="matrix" values="0 0 0 0 0 0 0 0 0 0.817495 0 0 0 0 0.354248 0 0 0 1 0"/>
<feBlend mode="normal" in2="shape" result="effect3_innerShadow_875_1210"/>
<feColorMatrix in="SourceAlpha" type="matrix" values="0 0 0 0 0 0 0 0 0 0 0 0 0 0 0 0 0 0 127 0" result="hardAlpha"/>
<feOffset dx="2.87259" dy="2.87259"/>
<feGaussianBlur stdDeviation="2.39383"/>
<feComposite in2="hardAlpha" operator="arithmetic" k2="-1" k3="1"/>
<feColorMatrix type="matrix" values="0 0 0 0 1 0 0 0 0 1 0 0 0 0 1 0 0 0 1 0"/>
<feBlend mode="normal" in2="effect3_innerShadow_875_1210" result="effect4_innerShadow_875_1210"/>
</filter>
<linearGradient id="paint0_linear_875_1210" x1="132.822" y1="-23.2052" x2="179.248" y2="149.135" gradientUnits="userSpaceOnUse">
<stop stop-color="#8BFAA5"/>
<stop offset="0.235577" stop-color="#2BD954"/>
<stop offset="0.703777" stop-color="#2BD954"/>
<stop offset="0.919563" stop-color="#40F76B"/>
</linearGradient>
<linearGradient id="paint1_linear_875_1210" x1="101.209" y1="3.04441e-07" x2="140.228" y2="135.012" gradientUnits="userSpaceOnUse">
<stop stop-color="#B5FFC7"/>
<stop offset="0.261413" stop-color="#33E45D"/>
</linearGradient>
<linearGradient id="paint2_linear_875_1210" x1="92.777" y1="3.19374" x2="128.136" y2="141.946" gradientUnits="userSpaceOnUse">
<stop stop-color="white"/>
<stop offset="0.214849" stop-color="#33E45D"/>
</linearGradient>
<linearGradient id="paint3_linear_875_1210" x1="113.294" y1="4.76082" x2="140.228" y2="135.012" gradientUnits="userSpaceOnUse">
<stop stop-color="#99F7B0"/>
<stop offset="0.19402" stop-color="#33E45D"/>
</linearGradient>
<clipPath id="clip0_875_1210">
<rect x="54.7686" width="135.012" height="135.012" rx="29.5338" transform="rotate(5 54.7686 0)" fill="white"/>
</clipPath>
</defs>
</svg>
