<svg width="264" height="178" viewBox="0 0 264 178" fill="none" xmlns="http://www.w3.org/2000/svg">
<path d="M61.5109 70V57.6707L63.427 62.6274L50.3896 40.843H59.0951L68.5086 56.6294H63.4686L72.9238 40.843H80.9212L67.9255 62.6274L69.7582 57.6707V70H61.5109ZM91.4922 70.3749C89.0208 70.3749 86.8271 69.875 84.9111 68.8754C82.995 67.8757 81.4816 66.5012 80.3709 64.7517C79.2879 62.9745 78.7464 60.9474 78.7464 58.6704C78.7464 56.3934 79.2879 54.3802 80.3709 52.6307C81.4816 50.8813 82.995 49.5207 84.9111 48.5488C86.8271 47.5491 89.0208 47.0493 91.4922 47.0493C93.9636 47.0493 96.1573 47.5491 98.0734 48.5488C100.017 49.5207 101.531 50.8813 102.614 52.6307C103.697 54.3802 104.238 56.3934 104.238 58.6704C104.238 60.9474 103.697 62.9745 102.614 64.7517C101.531 66.5012 100.017 67.8757 98.0734 68.8754C96.1573 69.875 93.9636 70.3749 91.4922 70.3749ZM91.4922 64.0853C92.4086 64.0853 93.2139 63.877 93.9081 63.4605C94.6301 63.044 95.1993 62.4331 95.6159 61.6278C96.0324 60.7947 96.2406 59.8089 96.2406 58.6704C96.2406 57.5319 96.0324 56.5739 95.6159 55.7964C95.1993 54.9911 94.6301 54.3802 93.9081 53.9636C93.2139 53.5471 92.4086 53.3388 91.4922 53.3388C90.6036 53.3388 89.7983 53.5471 89.0764 53.9636C88.3821 54.3802 87.8129 54.9911 87.3686 55.7964C86.9521 56.5739 86.7438 57.5319 86.7438 58.6704C86.7438 59.8089 86.9521 60.7947 87.3686 61.6278C87.8129 62.4331 88.3821 63.044 89.0764 63.4605C89.7983 63.877 90.6036 64.0853 91.4922 64.0853Z" fill="#1EDB63"/>
<path d="M127.813 47.5074C129.59 47.5074 131.173 47.8545 132.561 48.5488C133.977 49.243 135.088 50.3121 135.893 51.756C136.699 53.1722 137.101 55.005 137.101 57.2542V70H131.895V57.9207C131.895 55.9491 131.423 54.4774 130.479 53.5055C129.562 52.5336 128.271 52.0476 126.605 52.0476C125.383 52.0476 124.3 52.2975 123.356 52.7974C122.412 53.2972 121.676 54.0469 121.148 55.0466C120.648 56.0185 120.399 57.2542 120.399 58.7537V70H115.192V39.0936H120.399V53.7554L119.274 51.9226C120.051 50.5064 121.176 49.4235 122.648 48.6737C124.147 47.8962 125.869 47.5074 127.813 47.5074ZM157.41 70V65.5015L157.118 64.5435V56.6711C157.118 55.1438 156.66 53.9636 155.744 53.1306C154.828 52.2698 153.439 51.8393 151.579 51.8393C150.329 51.8393 149.093 52.0337 147.872 52.4225C146.677 52.8112 145.664 53.3527 144.831 54.0469L142.79 50.2565C143.984 49.3402 145.4 48.6598 147.038 48.2155C148.705 47.7435 150.426 47.5074 152.203 47.5074C155.425 47.5074 157.91 48.285 159.659 49.84C161.436 51.3673 162.325 53.7415 162.325 56.9626V70H157.41ZM150.412 70.2916C148.746 70.2916 147.288 70.0139 146.039 69.4585C144.789 68.8754 143.817 68.084 143.123 67.0843C142.457 66.0569 142.123 64.9045 142.123 63.6271C142.123 62.3775 142.415 61.2529 142.998 60.2532C143.609 59.2536 144.595 58.4621 145.955 57.879C147.316 57.2959 149.121 57.0043 151.37 57.0043H157.827V60.4615H151.745C149.968 60.4615 148.774 60.7531 148.163 61.3362C147.552 61.8916 147.247 62.5858 147.247 63.4188C147.247 64.363 147.622 65.1127 148.371 65.6681C149.121 66.2235 150.162 66.5012 151.495 66.5012C152.773 66.5012 153.911 66.2096 154.911 65.6264C155.938 65.0433 156.674 64.1825 157.118 63.044L157.993 66.1679C157.493 67.4731 156.591 68.4866 155.286 69.2086C154.008 69.9306 152.384 70.2916 150.412 70.2916ZM173.256 65.0433L173.381 58.5038L185.002 47.7574H191.25L181.378 57.6707L178.629 59.9617L173.256 65.0433ZM169.007 70V39.0936H174.214V70H169.007ZM185.793 70L177.671 59.9617L180.961 55.7964L192.124 70H185.793ZM204.494 70.2916C202.606 70.2916 200.94 69.9445 199.496 69.2502C198.052 68.5283 196.927 67.4453 196.122 66.0013C195.317 64.5296 194.914 62.683 194.914 60.4615V47.7574H200.121V59.7534C200.121 61.7527 200.565 63.2522 201.454 64.2519C202.37 65.2238 203.661 65.7098 205.327 65.7098C206.549 65.7098 207.604 65.4598 208.493 64.96C209.409 64.4602 210.118 63.7104 210.617 62.7107C211.145 61.7111 211.409 60.4754 211.409 59.0036V47.7574H216.615V70H211.659V64.002L212.533 65.8347C211.784 67.2787 210.687 68.3894 209.243 69.1669C207.799 69.9167 206.216 70.2916 204.494 70.2916Z" fill="#1F2937"/>
<g filter="url(#filter0_d_743_1204)">
<circle cx="221.438" cy="13.4381" r="11.4381" fill="#1EDB63"/>
</g>
<g filter="url(#filter1_d_743_1204)">
<circle cx="49.3919" cy="13.3919" r="4.45422" stroke="#1EDB63" stroke-width="1.87546" shape-rendering="crispEdges"/>
</g>
<g filter="url(#filter2_d_743_1204)">
<circle cx="15.9745" cy="65.9745" r="6.97446" fill="#1EDB63"/>
</g>
<g filter="url(#filter3_d_743_1204)">
<circle cx="238.392" cy="87.3919" r="8.58465" stroke="#1EDB63" stroke-width="3.61459" shape-rendering="crispEdges"/>
</g>
<g clip-path="url(#clip0_743_1204)">
<rect x="97" y="84" width="86.3123" height="86.3123" rx="18.8808" transform="rotate(5 97 84)" fill="url(#paint0_linear_743_1204)"/>
<rect x="97" y="84" width="86.3123" height="86.3123" rx="18.8816" transform="rotate(5 97 84)" stroke="url(#paint1_linear_743_1204)" stroke-width="0.918216"/>
<g filter="url(#filter4_f_743_1204)">
<path d="M156.758 174.641L156.651 175.861L108.287 171.629L108.394 170.41L156.758 174.641ZM175.887 158.59L180.119 110.226C180.968 100.511 173.782 91.9465 164.067 91.0966L115.703 86.8653C106.064 86.022 97.5579 93.0899 96.5954 102.689L96.574 102.917L92.3427 151.281C91.4927 160.995 98.6792 169.56 108.394 170.41L108.287 171.629L108.044 171.607C97.8601 170.586 90.3404 161.624 91.1032 151.417L91.123 151.174L95.3544 102.81C96.2561 92.5027 105.279 84.857 115.566 85.6259L115.81 85.6456L164.174 89.877L164.417 89.8997C174.682 90.929 182.24 100.025 181.338 110.332L177.107 158.697L177.084 158.94C176.063 169.124 167.101 176.643 156.895 175.881L156.651 175.861L156.758 174.641C166.473 175.491 175.037 168.305 175.887 158.59Z" fill="url(#paint2_linear_743_1204)"/>
</g>
<g filter="url(#filter5_f_743_1204)">
<rect x="93.6885" y="76.981" width="71.7872" height="30.1674" rx="8.93849" transform="rotate(5 93.6885 76.981)" fill="#63FF88" style="mix-blend-mode:screen"/>
</g>
<g filter="url(#filter6_f_743_1204)">
<path d="M112.392 148.436L170.827 153.548L156.971 168.692L110.907 165.41L112.392 148.436Z" fill="#08AC54"/>
</g>
<g filter="url(#filter7_ddii_743_1204)">
<path fill-rule="evenodd" clip-rule="evenodd" d="M120.108 129.343C128.27 130.057 134.307 137.252 133.593 145.414C132.879 153.576 125.684 159.614 117.522 158.9C109.36 158.186 103.322 150.99 104.036 142.828C104.751 134.666 111.946 128.629 120.108 129.343ZM119.403 137.404C115.693 137.079 112.422 139.824 112.097 143.534C111.773 147.244 114.517 150.514 118.227 150.839C121.937 151.163 125.208 148.419 125.532 144.709C125.857 140.999 123.113 137.728 119.403 137.404Z" fill="white"/>
<path fill-rule="evenodd" clip-rule="evenodd" d="M152.352 132.164C160.514 132.878 166.551 140.073 165.837 148.235C165.123 156.397 157.928 162.435 149.766 161.721C141.604 161.007 135.566 153.811 136.28 145.649C136.994 137.487 144.19 131.45 152.352 132.164ZM151.647 140.225C147.937 139.9 144.666 142.645 144.341 146.355C144.017 150.064 146.761 153.335 150.471 153.66C154.181 153.984 157.452 151.24 157.776 147.53C158.101 143.82 155.357 140.549 151.647 140.225Z" fill="white"/>
<path d="M122.929 97.0989C131.091 97.8129 137.128 105.008 136.414 113.17C135.7 121.332 128.505 127.37 120.343 126.656C112.181 125.942 106.143 118.746 106.857 110.584C107.572 102.422 114.767 96.3848 122.929 97.0989Z" fill="white"/>
</g>
</g>
<rect x="97.6318" y="84.7529" width="84.9223" height="84.9223" rx="18.1858" transform="rotate(5 97.6318 84.7529)" stroke="url(#paint3_linear_743_1204)" stroke-width="1.38993"/>
<g filter="url(#filter8_d_743_1204)">
<circle cx="60.3919" cy="92.3919" r="4.45422" stroke="#1EDB63" stroke-width="1.87546" shape-rendering="crispEdges"/>
</g>
<defs>
<filter id="filter0_d_743_1204" x="208.605" y="0.605108" width="25.6658" height="25.666" filterUnits="userSpaceOnUse" color-interpolation-filters="sRGB">
<feFlood flood-opacity="0" result="BackgroundImageFix"/>
<feColorMatrix in="SourceAlpha" type="matrix" values="0 0 0 0 0 0 0 0 0 0 0 0 0 0 0 0 0 0 127 0" result="hardAlpha"/>
<feOffset/>
<feGaussianBlur stdDeviation="0.697446"/>
<feComposite in2="hardAlpha" operator="out"/>
<feColorMatrix type="matrix" values="0 0 0 0 0.168627 0 0 0 0 0.85098 0 0 0 0 0.329412 0 0 0 0.3 0"/>
<feBlend mode="normal" in2="BackgroundImageFix" result="effect1_dropShadow_743_1204"/>
<feBlend mode="normal" in="SourceGraphic" in2="effect1_dropShadow_743_1204" result="shape"/>
</filter>
<filter id="filter1_d_743_1204" x="43.4139" y="7.41392" width="11.9563" height="11.9561" filterUnits="userSpaceOnUse" color-interpolation-filters="sRGB">
<feFlood flood-opacity="0" result="BackgroundImageFix"/>
<feColorMatrix in="SourceAlpha" type="matrix" values="0 0 0 0 0 0 0 0 0 0 0 0 0 0 0 0 0 0 127 0" result="hardAlpha"/>
<feOffset/>
<feGaussianBlur stdDeviation="0.293041"/>
<feComposite in2="hardAlpha" operator="out"/>
<feColorMatrix type="matrix" values="0 0 0 0 0.168627 0 0 0 0 0.85098 0 0 0 0 0.329412 0 0 0 0.3 0"/>
<feBlend mode="normal" in2="BackgroundImageFix" result="effect1_dropShadow_743_1204"/>
<feBlend mode="normal" in="SourceGraphic" in2="effect1_dropShadow_743_1204" result="shape"/>
</filter>
<filter id="filter2_d_743_1204" x="8.14946" y="58.1495" width="15.6503" height="15.6501" filterUnits="userSpaceOnUse" color-interpolation-filters="sRGB">
<feFlood flood-opacity="0" result="BackgroundImageFix"/>
<feColorMatrix in="SourceAlpha" type="matrix" values="0 0 0 0 0 0 0 0 0 0 0 0 0 0 0 0 0 0 127 0" result="hardAlpha"/>
<feOffset/>
<feGaussianBlur stdDeviation="0.425272"/>
<feComposite in2="hardAlpha" operator="out"/>
<feColorMatrix type="matrix" values="0 0 0 0 0.168627 0 0 0 0 0.85098 0 0 0 0 0.329412 0 0 0 0.3 0"/>
<feBlend mode="normal" in2="BackgroundImageFix" result="effect1_dropShadow_743_1204"/>
<feBlend mode="normal" in="SourceGraphic" in2="effect1_dropShadow_743_1204" result="shape"/>
</filter>
<filter id="filter3_d_743_1204" x="226.87" y="75.8704" width="23.0433" height="23.0431" filterUnits="userSpaceOnUse" color-interpolation-filters="sRGB">
<feFlood flood-opacity="0" result="BackgroundImageFix"/>
<feColorMatrix in="SourceAlpha" type="matrix" values="0 0 0 0 0 0 0 0 0 0 0 0 0 0 0 0 0 0 127 0" result="hardAlpha"/>
<feOffset/>
<feGaussianBlur stdDeviation="0.56478"/>
<feComposite in2="hardAlpha" operator="out"/>
<feColorMatrix type="matrix" values="0 0 0 0 0.168627 0 0 0 0 0.85098 0 0 0 0 0.329412 0 0 0 0.3 0"/>
<feBlend mode="normal" in2="BackgroundImageFix" result="effect1_dropShadow_743_1204"/>
<feBlend mode="normal" in="SourceGraphic" in2="effect1_dropShadow_743_1204" result="shape"/>
</filter>
<filter id="filter4_f_743_1204" x="90.7023" y="85.225" width="91.0563" height="91.0563" filterUnits="userSpaceOnUse" color-interpolation-filters="sRGB">
<feFlood flood-opacity="0" result="BackgroundImageFix"/>
<feBlend mode="normal" in="SourceGraphic" in2="BackgroundImageFix" result="shape"/>
<feGaussianBlur stdDeviation="0.173742" result="effect1_foregroundBlur_743_1204"/>
</filter>
<filter id="filter5_f_743_1204" x="69.1782" y="55.0998" width="117.905" height="80.0714" filterUnits="userSpaceOnUse" color-interpolation-filters="sRGB">
<feFlood flood-opacity="0" result="BackgroundImageFix"/>
<feBlend mode="normal" in="SourceGraphic" in2="BackgroundImageFix" result="shape"/>
<feGaussianBlur stdDeviation="11.3128" result="effect1_foregroundBlur_743_1204"/>
</filter>
<filter id="filter6_f_743_1204" x="89.5935" y="127.123" width="102.546" height="62.8815" filterUnits="userSpaceOnUse" color-interpolation-filters="sRGB">
<feFlood flood-opacity="0" result="BackgroundImageFix"/>
<feBlend mode="normal" in="SourceGraphic" in2="BackgroundImageFix" result="shape"/>
<feGaussianBlur stdDeviation="10.6564" result="effect1_foregroundBlur_743_1204"/>
</filter>
<filter id="filter7_ddii_743_1204" x="100.613" y="96.0499" width="71.7093" height="74.6043" filterUnits="userSpaceOnUse" color-interpolation-filters="sRGB">
<feFlood flood-opacity="0" result="BackgroundImageFix"/>
<feColorMatrix in="SourceAlpha" type="matrix" values="0 0 0 0 0 0 0 0 0 0 0 0 0 0 0 0 0 0 127 0" result="hardAlpha"/>
<feOffset dx="1.53036" dy="3.97894"/>
<feGaussianBlur stdDeviation="2.44858"/>
<feComposite in2="hardAlpha" operator="out"/>
<feColorMatrix type="matrix" values="0 0 0 0 0 0 0 0 0 0.70243 0 0 0 0 0.526823 0 0 0 0.6 0"/>
<feBlend mode="normal" in2="BackgroundImageFix" result="effect1_dropShadow_743_1204"/>
<feColorMatrix in="SourceAlpha" type="matrix" values="0 0 0 0 0 0 0 0 0 0 0 0 0 0 0 0 0 0 127 0" result="hardAlpha"/>
<feOffset dx="1.67597" dy="2.51395"/>
<feGaussianBlur stdDeviation="1.662"/>
<feComposite in2="hardAlpha" operator="out"/>
<feColorMatrix type="matrix" values="0 0 0 0 0 0 0 0 0 0.838492 0 0 0 0 0.391296 0 0 0 0.4 0"/>
<feBlend mode="plus-darker" in2="effect1_dropShadow_743_1204" result="effect2_dropShadow_743_1204"/>
<feBlend mode="normal" in="SourceGraphic" in2="effect2_dropShadow_743_1204" result="shape"/>
<feColorMatrix in="SourceAlpha" type="matrix" values="0 0 0 0 0 0 0 0 0 0 0 0 0 0 0 0 0 0 127 0" result="hardAlpha"/>
<feOffset dx="-1.01675" dy="-0.991613"/>
<feGaussianBlur stdDeviation="2.19783"/>
<feComposite in2="hardAlpha" operator="arithmetic" k2="-1" k3="1"/>
<feColorMatrix type="matrix" values="0 0 0 0 0 0 0 0 0 0.817495 0 0 0 0 0.354248 0 0 0 1 0"/>
<feBlend mode="normal" in2="shape" result="effect3_innerShadow_743_1204"/>
<feColorMatrix in="SourceAlpha" type="matrix" values="0 0 0 0 0 0 0 0 0 0 0 0 0 0 0 0 0 0 127 0" result="hardAlpha"/>
<feOffset dx="1.83643" dy="1.83643"/>
<feGaussianBlur stdDeviation="1.53036"/>
<feComposite in2="hardAlpha" operator="arithmetic" k2="-1" k3="1"/>
<feColorMatrix type="matrix" values="0 0 0 0 1 0 0 0 0 1 0 0 0 0 1 0 0 0 1 0"/>
<feBlend mode="normal" in2="effect3_innerShadow_743_1204" result="effect4_innerShadow_743_1204"/>
</filter>
<filter id="filter8_d_743_1204" x="54.4139" y="86.4139" width="11.9563" height="11.9561" filterUnits="userSpaceOnUse" color-interpolation-filters="sRGB">
<feFlood flood-opacity="0" result="BackgroundImageFix"/>
<feColorMatrix in="SourceAlpha" type="matrix" values="0 0 0 0 0 0 0 0 0 0 0 0 0 0 0 0 0 0 127 0" result="hardAlpha"/>
<feOffset/>
<feGaussianBlur stdDeviation="0.293041"/>
<feComposite in2="hardAlpha" operator="out"/>
<feColorMatrix type="matrix" values="0 0 0 0 0.168627 0 0 0 0 0.85098 0 0 0 0 0.329412 0 0 0 0.3 0"/>
<feBlend mode="normal" in2="BackgroundImageFix" result="effect1_dropShadow_743_1204"/>
<feBlend mode="normal" in="SourceGraphic" in2="effect1_dropShadow_743_1204" result="shape"/>
</filter>
<linearGradient id="paint0_linear_743_1204" x1="146.899" y1="69.1651" x2="176.579" y2="179.341" gradientUnits="userSpaceOnUse">
<stop stop-color="#8BFAA5"/>
<stop offset="0.235577" stop-color="#2BD954"/>
<stop offset="0.703777" stop-color="#2BD954"/>
<stop offset="0.919563" stop-color="#40F76B"/>
</linearGradient>
<linearGradient id="paint1_linear_743_1204" x1="126.689" y1="84" x2="151.634" y2="170.312" gradientUnits="userSpaceOnUse">
<stop stop-color="#B5FFC7"/>
<stop offset="0.261413" stop-color="#33E45D"/>
</linearGradient>
<linearGradient id="paint2_linear_743_1204" x1="121.299" y1="86.0417" x2="143.903" y2="174.745" gradientUnits="userSpaceOnUse">
<stop stop-color="white"/>
<stop offset="0.214849" stop-color="#33E45D"/>
</linearGradient>
<linearGradient id="paint3_linear_743_1204" x1="134.415" y1="87.0436" x2="151.634" y2="170.312" gradientUnits="userSpaceOnUse">
<stop stop-color="#99F7B0"/>
<stop offset="0.19402" stop-color="#33E45D"/>
</linearGradient>
<clipPath id="clip0_743_1204">
<rect x="97" y="84" width="86.3123" height="86.3123" rx="18.8808" transform="rotate(5 97 84)" fill="white"/>
</clipPath>
</defs>
</svg>
