<svg width="36" height="44" viewBox="0 0 36 44" fill="none" xmlns="http://www.w3.org/2000/svg">
<path d="M14 7.5V3.5M22 7.5V3.5M13 11.5H23M11 21.5H25C25.5304 21.5 26.0391 21.2893 26.4142 20.9142C26.7893 20.5391 27 20.0304 27 19.5V7.5C27 6.96957 26.7893 6.46086 26.4142 6.08579C26.0391 5.71071 25.5304 5.5 25 5.5H11C10.4696 5.5 9.96086 5.71071 9.58579 6.08579C9.21071 6.46086 9 6.96957 9 7.5V19.5C9 20.0304 9.21071 20.5391 9.58579 20.9142C9.96086 21.2893 10.4696 21.5 11 21.5Z" stroke="#B9C0C9" stroke-width="2"/>
<path d="M11.664 30.84H12.732V32.076C12.732 32.436 12.688 32.82 12.6 33.228C12.512 33.628 12.348 34.02 12.108 34.404C11.868 34.78 11.516 35.116 11.052 35.412C11.012 35.332 10.944 35.24 10.848 35.136C10.752 35.024 10.652 34.92 10.548 34.824C10.452 34.72 10.368 34.64 10.296 34.584C10.696 34.336 10.992 34.068 11.184 33.78C11.384 33.492 11.512 33.2 11.568 32.904C11.632 32.608 11.664 32.324 11.664 32.052V30.84ZM12.216 30.84H15.204V31.884H12.216V30.84ZM14.676 30.84H15.768V33.6C15.768 33.744 15.78 33.836 15.804 33.876C15.836 33.916 15.896 33.936 15.984 33.936C16.016 33.936 16.064 33.936 16.128 33.936C16.2 33.936 16.272 33.936 16.344 33.936C16.424 33.936 16.476 33.936 16.5 33.936C16.572 33.936 16.624 33.908 16.656 33.852C16.696 33.788 16.724 33.66 16.74 33.468C16.756 33.276 16.768 32.988 16.776 32.604C16.888 32.692 17.036 32.776 17.22 32.856C17.404 32.928 17.572 32.984 17.724 33.024C17.692 33.512 17.636 33.892 17.556 34.164C17.484 34.428 17.372 34.616 17.22 34.728C17.076 34.832 16.88 34.884 16.632 34.884C16.568 34.884 16.48 34.884 16.368 34.884C16.256 34.884 16.144 34.884 16.032 34.884C15.928 34.884 15.848 34.884 15.792 34.884C15.504 34.884 15.28 34.848 15.12 34.776C14.96 34.704 14.844 34.576 14.772 34.392C14.708 34.2 14.676 33.94 14.676 33.612V30.84ZM10.98 35.544H16.044V36.576H10.98V35.544ZM15.696 35.544H15.924L16.128 35.496L16.872 35.796C16.632 36.612 16.304 37.336 15.888 37.968C15.472 38.592 14.988 39.136 14.436 39.6C13.884 40.056 13.272 40.44 12.6 40.752C11.936 41.072 11.232 41.328 10.488 41.52C10.456 41.416 10.404 41.3 10.332 41.172C10.268 41.052 10.196 40.928 10.116 40.8C10.044 40.68 9.972 40.58 9.9 40.5C10.58 40.348 11.228 40.14 11.844 39.876C12.46 39.604 13.02 39.272 13.524 38.88C14.036 38.48 14.476 38.02 14.844 37.5C15.22 36.972 15.504 36.38 15.696 35.724V35.544ZM12.36 36.504C12.8 37.52 13.476 38.372 14.388 39.06C15.308 39.74 16.428 40.216 17.748 40.488C17.668 40.56 17.58 40.66 17.484 40.788C17.388 40.916 17.296 41.04 17.208 41.16C17.128 41.288 17.056 41.404 16.992 41.508C15.624 41.172 14.468 40.608 13.524 39.816C12.588 39.024 11.86 38.024 11.34 36.816L12.36 36.504ZM6.336 36.696C6.672 36.608 7.06 36.508 7.5 36.396C7.94 36.276 8.408 36.148 8.904 36.012C9.4 35.876 9.9 35.74 10.404 35.604L10.524 36.588C9.86 36.812 9.188 37.04 8.508 37.272C7.836 37.496 7.224 37.696 6.672 37.872L6.336 36.696ZM6.504 32.676H10.548V33.732H6.504V32.676ZM8.148 30.372H9.264V40.236C9.264 40.532 9.228 40.76 9.156 40.92C9.092 41.08 8.972 41.204 8.796 41.292C8.62 41.38 8.392 41.436 8.112 41.46C7.84 41.484 7.5 41.496 7.092 41.496C7.076 41.352 7.032 41.18 6.96 40.98C6.896 40.78 6.828 40.604 6.756 40.452C7.012 40.46 7.248 40.468 7.464 40.476C7.688 40.476 7.84 40.472 7.92 40.464C8.008 40.464 8.068 40.448 8.1 40.416C8.132 40.384 8.148 40.324 8.148 40.236V30.372ZM25.5 30.372H26.604V32.028H25.5V30.372ZM22.728 31.56H29.352V32.472H22.728V31.56ZM24.648 33.828V34.8H27.528V33.828H24.648ZM23.676 33.036H28.536V35.592H23.676V33.036ZM22.812 36.168H28.704V37.068H23.832V41.508H22.812V36.168ZM28.296 36.168H29.34V40.464C29.34 40.696 29.312 40.88 29.256 41.016C29.208 41.16 29.104 41.272 28.944 41.352C28.792 41.424 28.6 41.468 28.368 41.484C28.144 41.5 27.864 41.508 27.528 41.508C27.512 41.372 27.476 41.22 27.42 41.052C27.372 40.884 27.316 40.74 27.252 40.62C27.452 40.628 27.632 40.632 27.792 40.632C27.96 40.632 28.076 40.628 28.14 40.62C28.244 40.612 28.296 40.56 28.296 40.464V36.168ZM24.54 37.68H25.356V40.752H24.54V37.68ZM25.128 37.68H27.576V40.176H25.128V39.456H26.76V38.4H25.128V37.68ZM20.184 31.392H21.276V41.508H20.184V31.392ZM18.504 33.72H22.704V34.776H18.504V33.72ZM20.256 34.14L20.928 34.428C20.832 34.844 20.708 35.284 20.556 35.748C20.412 36.212 20.248 36.672 20.064 37.128C19.88 37.576 19.688 37.996 19.488 38.388C19.288 38.78 19.08 39.12 18.864 39.408C18.832 39.296 18.784 39.176 18.72 39.048C18.656 38.912 18.588 38.78 18.516 38.652C18.444 38.524 18.38 38.416 18.324 38.328C18.516 38.088 18.708 37.8 18.9 37.464C19.092 37.128 19.272 36.772 19.44 36.396C19.616 36.012 19.772 35.628 19.908 35.244C20.052 34.86 20.168 34.492 20.256 34.14ZM21.948 30.552L22.764 31.404C22.404 31.548 21.996 31.676 21.54 31.788C21.092 31.9 20.632 32 20.16 32.088C19.688 32.168 19.232 32.236 18.792 32.292C18.768 32.172 18.724 32.028 18.66 31.86C18.596 31.684 18.528 31.536 18.456 31.416C18.88 31.352 19.308 31.276 19.74 31.188C20.172 31.1 20.58 31.004 20.964 30.9C21.348 30.788 21.676 30.672 21.948 30.552ZM21.228 35.04C21.3 35.112 21.404 35.228 21.54 35.388C21.684 35.54 21.836 35.712 21.996 35.904C22.164 36.088 22.316 36.264 22.452 36.432C22.588 36.592 22.684 36.708 22.74 36.78L22.068 37.656C22.004 37.52 21.912 37.356 21.792 37.164C21.68 36.964 21.556 36.76 21.42 36.552C21.292 36.336 21.164 36.136 21.036 35.952C20.908 35.76 20.804 35.604 20.724 35.484L21.228 35.04Z" fill="#B9C0C9"/>
</svg>
