<svg width="72" height="72" viewBox="0 0 72 72" fill="none" xmlns="http://www.w3.org/2000/svg">
<rect x="0.5" y="0.5" width="71" height="71" rx="35.5" stroke="#DFE3E9"/>
<path d="M46 26H42.535L40.8312 23.445C40.74 23.3082 40.6164 23.196 40.4714 23.1184C40.3264 23.0408 40.1645 23.0001 40 23H32C31.8355 23.0001 31.6736 23.0408 31.5286 23.1184C31.3836 23.196 31.26 23.3082 31.1687 23.445L29.4637 26H26C25.2044 26 24.4413 26.3161 23.8787 26.8787C23.3161 27.4413 23 28.2044 23 29V43C23 43.7956 23.3161 44.5587 23.8787 45.1213C24.4413 45.6839 25.2044 46 26 46H46C46.7956 46 47.5587 45.6839 48.1213 45.1213C48.6839 44.5587 49 43.7956 49 43V29C49 28.2044 48.6839 27.4413 48.1213 26.8787C47.5587 26.3161 46.7956 26 46 26ZM47 43C47 43.2652 46.8946 43.5196 46.7071 43.7071C46.5196 43.8946 46.2652 44 46 44H26C25.7348 44 25.4804 43.8946 25.2929 43.7071C25.1054 43.5196 25 43.2652 25 43V29C25 28.7348 25.1054 28.4804 25.2929 28.2929C25.4804 28.1054 25.7348 28 26 28H30C30.1647 28.0001 30.3268 27.9595 30.4721 27.8819C30.6173 27.8043 30.7411 27.692 30.8325 27.555L32.535 25H39.4638L41.1675 27.555C41.2589 27.692 41.3827 27.8043 41.5279 27.8819C41.6732 27.9595 41.8353 28.0001 42 28H46C46.2652 28 46.5196 28.1054 46.7071 28.2929C46.8946 28.4804 47 28.7348 47 29V43ZM36 30C34.9122 30 33.8488 30.3226 32.9444 30.9269C32.0399 31.5313 31.3349 32.3902 30.9187 33.3952C30.5024 34.4002 30.3935 35.5061 30.6057 36.573C30.8179 37.6399 31.3417 38.6199 32.1109 39.3891C32.8801 40.1583 33.8601 40.6821 34.927 40.8943C35.9939 41.1065 37.0998 40.9976 38.1048 40.5813C39.1098 40.1651 39.9687 39.4601 40.5731 38.5556C41.1774 37.6512 41.5 36.5878 41.5 35.5C41.4983 34.0418 40.9184 32.6438 39.8873 31.6127C38.8562 30.5816 37.4582 30.0017 36 30ZM36 39C35.3078 39 34.6311 38.7947 34.0555 38.4101C33.4799 38.0256 33.0313 37.4789 32.7664 36.8394C32.5015 36.1999 32.4322 35.4961 32.5673 34.8172C32.7023 34.1383 33.0356 33.5146 33.5251 33.0251C34.0146 32.5356 34.6383 32.2023 35.3172 32.0673C35.9961 31.9322 36.6999 32.0015 37.3394 32.2664C37.9789 32.5313 38.5256 32.9799 38.9101 33.5555C39.2947 34.1311 39.5 34.8078 39.5 35.5C39.5 36.4283 39.1313 37.3185 38.4749 37.9749C37.8185 38.6313 36.9283 39 36 39Z" fill="#6B7280"/>
</svg>
