<svg width="104" height="35" viewBox="0 0 104 35" fill="none" xmlns="http://www.w3.org/2000/svg">
<rect width="104" height="35" rx="17.5" fill="#F0FDF4"/>
<path d="M22.936 12.568H33.088V15.196H32.152V13.408H23.836V15.196H22.936V12.568ZM25.732 14.932H31.324V15.724H25.732V14.932ZM25.312 17.164H30.52V17.968H25.312V17.164ZM22.66 19.396H33.376V20.224H22.66V19.396ZM30.28 17.164H31.18C31.18 17.164 31.176 17.192 31.168 17.248C31.168 17.296 31.168 17.352 31.168 17.416C31.168 17.48 31.16 17.536 31.144 17.584C31.048 18.656 30.948 19.532 30.844 20.212C30.748 20.884 30.64 21.404 30.52 21.772C30.4 22.14 30.256 22.404 30.088 22.564C29.952 22.7 29.804 22.796 29.644 22.852C29.492 22.908 29.304 22.944 29.08 22.96C28.88 22.968 28.6 22.968 28.24 22.96C27.888 22.96 27.516 22.948 27.124 22.924C27.116 22.796 27.084 22.652 27.028 22.492C26.972 22.332 26.9 22.192 26.812 22.072C27.236 22.104 27.628 22.124 27.988 22.132C28.356 22.148 28.616 22.156 28.768 22.156C28.912 22.156 29.024 22.144 29.104 22.12C29.192 22.104 29.272 22.068 29.344 22.012C29.472 21.9 29.588 21.672 29.692 21.328C29.804 20.976 29.908 20.476 30.004 19.828C30.1 19.172 30.192 18.336 30.28 17.32V17.164ZM25.6 13.504L26.5 13.588C26.404 14.108 26.292 14.66 26.164 15.244C26.044 15.828 25.92 16.396 25.792 16.948C25.664 17.5 25.544 17.976 25.432 18.376L24.52 18.292C24.608 17.98 24.7 17.628 24.796 17.236C24.892 16.844 24.988 16.432 25.084 16C25.18 15.568 25.272 15.14 25.36 14.716C25.456 14.284 25.536 13.88 25.6 13.504ZM41.116 21.496L41.704 20.92C42.144 21.072 42.592 21.236 43.048 21.412C43.512 21.58 43.948 21.748 44.356 21.916C44.764 22.084 45.116 22.236 45.412 22.372L44.656 22.984C44.384 22.84 44.056 22.684 43.672 22.516C43.296 22.348 42.888 22.176 42.448 22C42.008 21.824 41.564 21.656 41.116 21.496ZM34.684 19.948H45.34V20.716H34.684V19.948ZM35.02 12.928H45.04V13.696H35.02V12.928ZM39.508 11.908H40.444V14.86H39.508V11.908ZM37.36 16.456V17.26H42.832V16.456H37.36ZM37.36 17.836V18.652H42.832V17.836H37.36ZM37.36 15.1V15.88H42.832V15.1H37.36ZM36.484 14.488H43.744V19.24H36.484V14.488ZM38.152 20.944L38.944 21.46C38.624 21.652 38.256 21.844 37.84 22.036C37.424 22.228 36.996 22.404 36.556 22.564C36.116 22.732 35.696 22.872 35.296 22.984C35.224 22.896 35.128 22.788 35.008 22.66C34.888 22.532 34.78 22.428 34.684 22.348C35.084 22.236 35.504 22.104 35.944 21.952C36.384 21.8 36.8 21.636 37.192 21.46C37.584 21.284 37.904 21.112 38.152 20.944ZM51.52 12.508C51.472 12.748 51.408 13.032 51.328 13.36C51.256 13.68 51.136 14.044 50.968 14.452C50.824 14.812 50.644 15.184 50.428 15.568C50.22 15.952 49.996 16.3 49.756 16.612C49.908 16.516 50.08 16.436 50.272 16.372C50.464 16.3 50.66 16.248 50.86 16.216C51.068 16.184 51.256 16.168 51.424 16.168C51.888 16.168 52.28 16.3 52.6 16.564C52.92 16.82 53.08 17.196 53.08 17.692C53.08 17.844 53.08 18.04 53.08 18.28C53.08 18.512 53.08 18.76 53.08 19.024C53.088 19.28 53.096 19.532 53.104 19.78C53.112 20.028 53.116 20.244 53.116 20.428H52.192C52.2 20.268 52.208 20.08 52.216 19.864C52.224 19.648 52.228 19.42 52.228 19.18C52.236 18.94 52.236 18.712 52.228 18.496C52.228 18.28 52.228 18.096 52.228 17.944C52.228 17.592 52.12 17.336 51.904 17.176C51.696 17.008 51.432 16.924 51.112 16.924C50.736 16.924 50.364 17.008 49.996 17.176C49.636 17.336 49.32 17.544 49.048 17.8C48.872 17.968 48.696 18.16 48.52 18.376C48.352 18.584 48.164 18.808 47.956 19.048L47.14 18.448C47.716 17.888 48.196 17.364 48.58 16.876C48.964 16.388 49.276 15.936 49.516 15.52C49.756 15.096 49.944 14.716 50.08 14.38C50.208 14.044 50.312 13.708 50.392 13.372C50.472 13.028 50.52 12.712 50.536 12.424L51.52 12.508ZM47.416 13.804C47.736 13.844 48.084 13.876 48.46 13.9C48.836 13.924 49.164 13.936 49.444 13.936C49.98 13.936 50.556 13.924 51.172 13.9C51.788 13.868 52.408 13.824 53.032 13.768C53.664 13.712 54.264 13.632 54.832 13.528L54.82 14.416C54.404 14.488 53.96 14.548 53.488 14.596C53.016 14.636 52.536 14.672 52.048 14.704C51.56 14.728 51.088 14.748 50.632 14.764C50.184 14.772 49.768 14.776 49.384 14.776C49.216 14.776 49.02 14.776 48.796 14.776C48.58 14.768 48.352 14.76 48.112 14.752C47.872 14.736 47.64 14.72 47.416 14.704V13.804ZM56.584 16.708C56.48 16.732 56.364 16.768 56.236 16.816C56.116 16.856 55.992 16.9 55.864 16.948C55.744 16.996 55.628 17.044 55.516 17.092C55.1 17.252 54.616 17.448 54.064 17.68C53.512 17.912 52.948 18.18 52.372 18.484C51.972 18.684 51.62 18.896 51.316 19.12C51.012 19.336 50.772 19.564 50.596 19.804C50.42 20.036 50.332 20.292 50.332 20.572C50.332 20.804 50.384 20.992 50.488 21.136C50.6 21.28 50.756 21.392 50.956 21.472C51.156 21.544 51.384 21.592 51.64 21.616C51.904 21.64 52.192 21.652 52.504 21.652C52.968 21.652 53.496 21.628 54.088 21.58C54.688 21.524 55.252 21.452 55.78 21.364L55.756 22.324C55.452 22.364 55.108 22.4 54.724 22.432C54.348 22.464 53.964 22.488 53.572 22.504C53.188 22.528 52.82 22.54 52.468 22.54C51.9 22.54 51.38 22.488 50.908 22.384C50.444 22.28 50.072 22.096 49.792 21.832C49.512 21.568 49.372 21.192 49.372 20.704C49.372 20.344 49.456 20.016 49.624 19.72C49.792 19.416 50.016 19.14 50.296 18.892C50.584 18.644 50.9 18.416 51.244 18.208C51.588 17.992 51.94 17.796 52.3 17.62C52.684 17.412 53.044 17.232 53.38 17.08C53.724 16.928 54.048 16.788 54.352 16.66C54.656 16.532 54.94 16.404 55.204 16.276C55.38 16.196 55.548 16.12 55.708 16.048C55.868 15.976 56.028 15.896 56.188 15.808L56.584 16.708ZM58.756 13.12H69.28V13.96H58.756V13.12ZM63.532 11.92H64.456V13.456H63.532V11.92ZM65.152 13.456H66.028V16.612C66.028 16.836 66 17.012 65.944 17.14C65.888 17.26 65.776 17.356 65.608 17.428C65.448 17.492 65.228 17.532 64.948 17.548C64.668 17.556 64.328 17.56 63.928 17.56C63.904 17.44 63.868 17.308 63.82 17.164C63.772 17.012 63.724 16.876 63.676 16.756C63.972 16.764 64.24 16.768 64.48 16.768C64.72 16.768 64.876 16.768 64.948 16.768C65.028 16.76 65.08 16.744 65.104 16.72C65.136 16.696 65.152 16.652 65.152 16.588V13.456ZM62.632 13.36H63.484V14.032C63.484 14.336 63.46 14.66 63.412 15.004C63.372 15.348 63.284 15.696 63.148 16.048C63.012 16.4 62.804 16.744 62.524 17.08C62.244 17.408 61.868 17.72 61.396 18.016C61.348 17.944 61.284 17.872 61.204 17.8C61.132 17.72 61.052 17.644 60.964 17.572C60.884 17.5 60.812 17.44 60.748 17.392C61.18 17.144 61.524 16.876 61.78 16.588C62.036 16.3 62.224 16.004 62.344 15.7C62.464 15.396 62.54 15.1 62.572 14.812C62.612 14.524 62.632 14.256 62.632 14.008V13.36ZM66.64 14.932L67.348 14.524C67.612 14.748 67.88 15 68.152 15.28C68.424 15.56 68.68 15.84 68.92 16.12C69.16 16.392 69.352 16.636 69.496 16.852L68.74 17.332C68.612 17.108 68.432 16.856 68.2 16.576C67.968 16.296 67.716 16.012 67.444 15.724C67.172 15.436 66.904 15.172 66.64 14.932ZM60.568 14.584L61.432 14.812C61.176 15.268 60.844 15.716 60.436 16.156C60.036 16.588 59.616 16.944 59.176 17.224C59.096 17.144 58.992 17.052 58.864 16.948C58.744 16.844 58.636 16.76 58.54 16.696C58.82 16.528 59.092 16.328 59.356 16.096C59.62 15.864 59.856 15.616 60.064 15.352C60.28 15.088 60.448 14.832 60.568 14.584ZM61.996 18.832C62.42 19.48 62.996 20.032 63.724 20.488C64.46 20.944 65.32 21.312 66.304 21.592C67.288 21.864 68.364 22.048 69.532 22.144C69.476 22.216 69.412 22.3 69.34 22.396C69.268 22.5 69.204 22.6 69.148 22.696C69.092 22.8 69.044 22.896 69.004 22.984C67.804 22.856 66.704 22.632 65.704 22.312C64.712 21.992 63.836 21.568 63.076 21.04C62.324 20.512 61.704 19.868 61.216 19.108L61.996 18.832ZM62.692 17.344L63.652 17.524C63.204 18.132 62.632 18.712 61.936 19.264C61.24 19.808 60.404 20.292 59.428 20.716C59.388 20.644 59.332 20.568 59.26 20.488C59.196 20.4 59.128 20.316 59.056 20.236C58.984 20.156 58.916 20.096 58.852 20.056C59.78 19.696 60.568 19.272 61.216 18.784C61.864 18.296 62.356 17.816 62.692 17.344ZM62.344 18.256H66.82V19H61.684L62.344 18.256ZM66.58 18.256H66.784L66.952 18.22L67.54 18.616C67.156 19.288 66.664 19.872 66.064 20.368C65.472 20.856 64.796 21.272 64.036 21.616C63.284 21.96 62.48 22.244 61.624 22.468C60.776 22.692 59.904 22.868 59.008 22.996C58.984 22.924 58.944 22.836 58.888 22.732C58.84 22.628 58.788 22.528 58.732 22.432C58.676 22.336 58.616 22.256 58.552 22.192C59.432 22.088 60.28 21.94 61.096 21.748C61.92 21.556 62.688 21.312 63.4 21.016C64.112 20.712 64.74 20.344 65.284 19.912C65.836 19.48 66.268 18.98 66.58 18.412V18.256ZM70.78 12.556H81.22V13.372H70.78V12.556ZM75.604 12.904H76.54V17.56C76.54 18.024 76.504 18.476 76.432 18.916C76.36 19.348 76.22 19.764 76.012 20.164C75.804 20.564 75.5 20.94 75.1 21.292C74.7 21.644 74.172 21.96 73.516 22.24C72.868 22.52 72.064 22.764 71.104 22.972C71.072 22.9 71.024 22.816 70.96 22.72C70.896 22.624 70.828 22.524 70.756 22.42C70.692 22.324 70.628 22.244 70.564 22.18C71.5 22.004 72.276 21.796 72.892 21.556C73.508 21.316 73.996 21.048 74.356 20.752C74.724 20.448 74.996 20.128 75.172 19.792C75.348 19.448 75.464 19.088 75.52 18.712C75.576 18.336 75.604 17.948 75.604 17.548V12.904ZM72.736 17.068V18.292H79.576V17.068H72.736ZM72.736 15.148V16.348H79.576V15.148H72.736ZM71.872 14.392H80.476V19.036H71.872V14.392ZM73.024 19.144C73.408 19.736 73.868 20.216 74.404 20.584C74.94 20.952 75.56 21.236 76.264 21.436C76.976 21.636 77.776 21.78 78.664 21.868C79.552 21.948 80.54 22.004 81.628 22.036C81.548 22.14 81.468 22.276 81.388 22.444C81.316 22.612 81.268 22.772 81.244 22.924C80.132 22.876 79.116 22.792 78.196 22.672C77.276 22.56 76.444 22.38 75.7 22.132C74.956 21.892 74.296 21.556 73.72 21.124C73.144 20.692 72.656 20.136 72.256 19.456L73.024 19.144Z" fill="#22C55E"/>
</svg>
