<svg width="72" height="72" viewBox="0 0 72 72" fill="none" xmlns="http://www.w3.org/2000/svg">
<rect x="0.5" y="0.5" width="71" height="71" rx="35.5" stroke="#DFE3E9"/>
<path d="M46 24H24C23.4696 24 22.9609 24.2107 22.5858 24.5858C22.2107 24.9609 22 25.4696 22 26V44C22 44.5304 22.2107 45.0391 22.5858 45.4142C22.9609 45.7893 23.4696 46 24 46H46C46.5304 46 47.0391 45.7893 47.4142 45.4142C47.7893 45.0391 48 44.5304 48 44V26C48 25.4696 47.7893 24.9609 47.4142 24.5858C47.0391 24.2107 46.5304 24 46 24ZM46 26V38.8438L42.7412 35.5863C42.5555 35.4005 42.335 35.2531 42.0923 35.1526C41.8497 35.052 41.5896 35.0003 41.3269 35.0003C41.0642 35.0003 40.8041 35.052 40.5614 35.1526C40.3187 35.2531 40.0982 35.4005 39.9125 35.5863L37.4125 38.0863L31.9125 32.5863C31.5375 32.2115 31.029 32.0009 30.4987 32.0009C29.9685 32.0009 29.46 32.2115 29.085 32.5863L24 37.6712V26H46ZM24 40.5L30.5 34L40.5 44H24V40.5ZM46 44H43.3288L38.8288 39.5L41.3288 37L46 41.6725V44ZM37 31.5C37 31.2033 37.088 30.9133 37.2528 30.6666C37.4176 30.42 37.6519 30.2277 37.926 30.1142C38.2001 30.0006 38.5017 29.9709 38.7926 30.0288C39.0836 30.0867 39.3509 30.2296 39.5607 30.4393C39.7704 30.6491 39.9133 30.9164 39.9712 31.2074C40.0291 31.4983 39.9993 31.7999 39.8858 32.074C39.7723 32.3481 39.58 32.5824 39.3334 32.7472C39.0867 32.912 38.7967 33 38.5 33C38.1022 33 37.7206 32.842 37.4393 32.5607C37.158 32.2794 37 31.8978 37 31.5Z" fill="#6B7280"/>
</svg>
