<svg width="36" height="44" viewBox="0 0 36 44" fill="none" xmlns="http://www.w3.org/2000/svg">
<path d="M23 20.5H28V18.5C28 17.8765 27.8057 17.2686 27.4441 16.7606C27.0826 16.2527 26.5718 15.87 25.9827 15.6658C25.3937 15.4615 24.7556 15.4459 24.1573 15.621C23.5589 15.7962 23.03 16.1534 22.644 16.643M23 20.5H13M23 20.5V18.5C23 17.844 22.874 17.217 22.644 16.643M22.644 16.643C22.2726 15.715 21.6318 14.9195 20.804 14.3591C19.9762 13.7988 18.9996 13.4993 18 13.4993C17.0004 13.4993 16.0238 13.7988 15.196 14.3591C14.3682 14.9195 13.7274 15.715 13.356 16.643M13 20.5H8V18.5C8.00005 17.8765 8.19434 17.2686 8.55586 16.7606C8.91739 16.2527 9.42819 15.87 10.0173 15.6658C10.6063 15.4615 11.2444 15.4459 11.8427 15.621C12.4411 15.7962 12.97 16.1534 13.356 16.643M13 20.5V18.5C13 17.844 13.126 17.217 13.356 16.643M21 7.5C21 8.29565 20.6839 9.05871 20.1213 9.62132C19.5587 10.1839 18.7956 10.5 18 10.5C17.2044 10.5 16.4413 10.1839 15.8787 9.62132C15.3161 9.05871 15 8.29565 15 7.5C15 6.70435 15.3161 5.94129 15.8787 5.37868C16.4413 4.81607 17.2044 4.5 18 4.5C18.7956 4.5 19.5587 4.81607 20.1213 5.37868C20.6839 5.94129 21 6.70435 21 7.5ZM27 10.5C27 11.0304 26.7893 11.5391 26.4142 11.9142C26.0391 12.2893 25.5304 12.5 25 12.5C24.4696 12.5 23.9609 12.2893 23.5858 11.9142C23.2107 11.5391 23 11.0304 23 10.5C23 9.96957 23.2107 9.46086 23.5858 9.08579C23.9609 8.71071 24.4696 8.5 25 8.5C25.5304 8.5 26.0391 8.71071 26.4142 9.08579C26.7893 9.46086 27 9.96957 27 10.5ZM13 10.5C13 11.0304 12.7893 11.5391 12.4142 11.9142C12.0391 12.2893 11.5304 12.5 11 12.5C10.4696 12.5 9.96086 12.2893 9.58579 11.9142C9.21071 11.5391 9 11.0304 9 10.5C9 9.96957 9.21071 9.46086 9.58579 9.08579C9.96086 8.71071 10.4696 8.5 11 8.5C11.5304 8.5 12.0391 8.71071 12.4142 9.08579C12.7893 9.46086 13 9.96957 13 10.5Z" stroke="#B9C0C9" stroke-width="2"/>
<path d="M10.752 35.376C11.272 36.728 12.092 37.836 13.212 38.7C14.34 39.556 15.78 40.14 17.532 40.452C17.444 40.532 17.352 40.632 17.256 40.752C17.168 40.88 17.08 41.008 16.992 41.136C16.912 41.264 16.848 41.38 16.8 41.484C15.6 41.228 14.548 40.844 13.644 40.332C12.74 39.812 11.968 39.164 11.328 38.388C10.696 37.612 10.176 36.704 9.768 35.664L10.752 35.376ZM14.856 34.824H15.072L15.276 34.764L16.056 35.112C15.808 36.016 15.468 36.816 15.036 37.512C14.612 38.2 14.112 38.804 13.536 39.324C12.96 39.836 12.328 40.268 11.64 40.62C10.952 40.98 10.224 41.276 9.456 41.508C9.384 41.356 9.284 41.184 9.156 40.992C9.036 40.808 8.92 40.656 8.808 40.536C9.512 40.36 10.184 40.116 10.824 39.804C11.464 39.484 12.048 39.096 12.576 38.64C13.112 38.184 13.572 37.656 13.956 37.056C14.348 36.456 14.648 35.78 14.856 35.028V34.824ZM6.804 32.28H17.22V33.384H6.804V32.28ZM10.104 34.824H14.976V35.916H9.78L10.104 34.824ZM9.924 30.36H11.1C11.084 30.592 11.064 30.904 11.04 31.296C11.016 31.688 10.976 32.14 10.92 32.652C10.864 33.164 10.78 33.712 10.668 34.296C10.564 34.88 10.424 35.48 10.248 36.096C10.072 36.712 9.852 37.32 9.588 37.92C9.324 38.512 9.008 39.08 8.64 39.624C8.28 40.168 7.848 40.66 7.344 41.1C7.232 40.956 7.088 40.812 6.912 40.668C6.736 40.532 6.552 40.412 6.36 40.308C6.856 39.908 7.284 39.456 7.644 38.952C8.004 38.448 8.308 37.912 8.556 37.344C8.812 36.776 9.02 36.204 9.18 35.628C9.348 35.044 9.48 34.48 9.576 33.936C9.672 33.384 9.74 32.872 9.78 32.4C9.828 31.92 9.86 31.508 9.876 31.164C9.9 30.812 9.916 30.544 9.924 30.36ZM21.06 35.076V39.408H19.968V36.132H18.516V35.076H21.06ZM21.06 38.952C21.316 39.376 21.68 39.688 22.152 39.888C22.632 40.088 23.208 40.204 23.88 40.236C24.224 40.244 24.64 40.252 25.128 40.26C25.624 40.26 26.14 40.26 26.676 40.26C27.22 40.252 27.748 40.24 28.26 40.224C28.772 40.2 29.22 40.176 29.604 40.152C29.564 40.232 29.52 40.34 29.472 40.476C29.424 40.604 29.38 40.736 29.34 40.872C29.3 41.016 29.268 41.144 29.244 41.256C28.892 41.272 28.48 41.284 28.008 41.292C27.544 41.308 27.06 41.316 26.556 41.316C26.052 41.324 25.564 41.324 25.092 41.316C24.628 41.308 24.22 41.3 23.868 41.292C23.108 41.26 22.46 41.136 21.924 40.92C21.396 40.712 20.948 40.372 20.58 39.9C20.324 40.148 20.06 40.396 19.788 40.644C19.524 40.892 19.24 41.148 18.936 41.412L18.384 40.284C18.64 40.1 18.916 39.892 19.212 39.66C19.508 39.428 19.792 39.192 20.064 38.952H21.06ZM18.6 31.308L19.464 30.672C19.704 30.856 19.948 31.064 20.196 31.296C20.452 31.52 20.684 31.748 20.892 31.98C21.1 32.204 21.268 32.416 21.396 32.616L20.46 33.324C20.348 33.124 20.188 32.908 19.98 32.676C19.78 32.436 19.556 32.196 19.308 31.956C19.068 31.716 18.832 31.5 18.6 31.308ZM23.028 33.72L24.012 33.492C24.124 33.676 24.232 33.88 24.336 34.104C24.44 34.328 24.512 34.524 24.552 34.692L23.52 34.944C23.496 34.776 23.436 34.58 23.34 34.356C23.244 34.124 23.14 33.912 23.028 33.72ZM22.356 31.188H28.62V32.016H22.356V31.188ZM22.248 36.312H28.788V37.128H22.248V36.312ZM21.78 34.788H29.256V35.628H21.78V34.788ZM21.552 32.784H29.412V33.636H21.552V32.784ZM21.696 37.884H29.304V38.724H21.696V37.884ZM24.876 30.372H25.992V33.312H24.876V30.372ZM24.876 35.184H25.992V39.72H24.876V35.184ZM26.796 33.468L27.9 33.744C27.772 33.976 27.648 34.196 27.528 34.404C27.408 34.612 27.296 34.796 27.192 34.956L26.28 34.692C26.368 34.516 26.46 34.312 26.556 34.08C26.66 33.84 26.74 33.636 26.796 33.468Z" fill="#B9C0C9"/>
</svg>
