<svg width="46" height="44" viewBox="0 0 46 44" fill="none" xmlns="http://www.w3.org/2000/svg">
<path d="M28 20.5H33V18.5C33 17.8765 32.8057 17.2686 32.4441 16.7606C32.0826 16.2527 31.5718 15.87 30.9827 15.6658C30.3937 15.4615 29.7556 15.4459 29.1573 15.621C28.5589 15.7962 28.03 16.1534 27.644 16.643M28 20.5H18M28 20.5V18.5C28 17.844 27.874 17.217 27.644 16.643M27.644 16.643C27.2726 15.715 26.6318 14.9195 25.804 14.3591C24.9762 13.7988 23.9996 13.4993 23 13.4993C22.0004 13.4993 21.0238 13.7988 20.196 14.3591C19.3682 14.9195 18.7274 15.715 18.356 16.643M18 20.5H13V18.5C13 17.8765 13.1943 17.2686 13.5559 16.7606C13.9174 16.2527 14.4282 15.87 15.0173 15.6658C15.6063 15.4615 16.2444 15.4459 16.8427 15.621C17.4411 15.7962 17.97 16.1534 18.356 16.643M18 20.5V18.5C18 17.844 18.126 17.217 18.356 16.643M26 7.5C26 8.29565 25.6839 9.05871 25.1213 9.62132C24.5587 10.1839 23.7956 10.5 23 10.5C22.2044 10.5 21.4413 10.1839 20.8787 9.62132C20.3161 9.05871 20 8.29565 20 7.5C20 6.70435 20.3161 5.94129 20.8787 5.37868C21.4413 4.81607 22.2044 4.5 23 4.5C23.7956 4.5 24.5587 4.81607 25.1213 5.37868C25.6839 5.94129 26 6.70435 26 7.5ZM32 10.5C32 11.0304 31.7893 11.5391 31.4142 11.9142C31.0391 12.2893 30.5304 12.5 30 12.5C29.4696 12.5 28.9609 12.2893 28.5858 11.9142C28.2107 11.5391 28 11.0304 28 10.5C28 9.96957 28.2107 9.46086 28.5858 9.08579C28.9609 8.71071 29.4696 8.5 30 8.5C30.5304 8.5 31.0391 8.71071 31.4142 9.08579C31.7893 9.46086 32 9.96957 32 10.5ZM18 10.5C18 11.0304 17.7893 11.5391 17.4142 11.9142C17.0391 12.2893 16.5304 12.5 16 12.5C15.4696 12.5 14.9609 12.2893 14.5858 11.9142C14.2107 11.5391 14 11.0304 14 10.5C14 9.96957 14.2107 9.46086 14.5858 9.08579C14.9609 8.71071 15.4696 8.5 16 8.5C16.5304 8.5 17.0391 8.71071 17.4142 9.08579C17.7893 9.46086 18 9.96957 18 10.5Z" stroke="#B9C0C9" stroke-width="2"/>
<path d="M9.476 32.52C9.436 32.616 9.396 32.728 9.356 32.856C9.324 32.976 9.292 33.096 9.26 33.216C9.196 33.52 9.112 33.86 9.008 34.236C8.904 34.612 8.776 35 8.624 35.4C8.48 35.8 8.312 36.192 8.12 36.576C7.928 36.952 7.712 37.3 7.472 37.62C7.104 38.092 6.688 38.532 6.224 38.94C5.768 39.348 5.248 39.716 4.664 40.044C4.08 40.364 3.424 40.64 2.696 40.872L1.664 39.744C2.456 39.552 3.14 39.316 3.716 39.036C4.292 38.748 4.792 38.424 5.216 38.064C5.648 37.696 6.028 37.304 6.356 36.888C6.636 36.536 6.876 36.144 7.076 35.712C7.276 35.28 7.444 34.848 7.58 34.416C7.716 33.976 7.808 33.572 7.856 33.204C7.744 33.204 7.536 33.204 7.232 33.204C6.936 33.204 6.588 33.204 6.188 33.204C5.788 33.204 5.368 33.204 4.928 33.204C4.496 33.204 4.076 33.204 3.668 33.204C3.268 33.204 2.916 33.204 2.612 33.204C2.308 33.204 2.092 33.204 1.964 33.204C1.708 33.204 1.464 33.208 1.232 33.216C1.008 33.224 0.82 33.236 0.668 33.252V31.908C0.78 31.924 0.912 31.94 1.064 31.956C1.216 31.964 1.372 31.976 1.532 31.992C1.692 32 1.836 32.004 1.964 32.004C2.076 32.004 2.252 32.004 2.492 32.004C2.74 32.004 3.024 32.004 3.344 32.004C3.672 32.004 4.02 32.004 4.388 32.004C4.756 32.004 5.12 32.004 5.48 32.004C5.848 32.004 6.188 32.004 6.5 32.004C6.82 32.004 7.092 32.004 7.316 32.004C7.54 32.004 7.696 32.004 7.784 32.004C7.888 32.004 8.008 32 8.144 31.992C8.288 31.976 8.424 31.952 8.552 31.92L9.476 32.52ZM13.52 40.08C13.576 39.96 13.612 39.852 13.628 39.756C13.644 39.652 13.652 39.536 13.652 39.408C13.652 39.272 13.652 39.044 13.652 38.724C13.652 38.396 13.652 38.016 13.652 37.584C13.652 37.144 13.652 36.684 13.652 36.204C13.652 35.724 13.652 35.256 13.652 34.8C13.652 34.336 13.652 33.92 13.652 33.552C13.652 33.184 13.652 32.9 13.652 32.7C13.652 32.572 13.644 32.432 13.628 32.28C13.62 32.12 13.608 31.972 13.592 31.836C13.584 31.692 13.568 31.576 13.544 31.488H15.032C15.008 31.664 14.984 31.86 14.96 32.076C14.944 32.292 14.936 32.496 14.936 32.688C14.936 32.864 14.936 33.1 14.936 33.396C14.936 33.692 14.936 34.024 14.936 34.392C14.936 34.76 14.936 35.148 14.936 35.556C14.936 35.956 14.936 36.352 14.936 36.744C14.936 37.136 14.936 37.504 14.936 37.848C14.936 38.184 14.936 38.476 14.936 38.724C14.936 38.972 14.936 39.148 14.936 39.252C15.472 39.108 16.032 38.908 16.616 38.652C17.208 38.396 17.792 38.092 18.368 37.74C18.944 37.38 19.484 36.988 19.988 36.564C20.5 36.14 20.944 35.692 21.32 35.22L22.004 36.276C21.204 37.252 20.2 38.104 18.992 38.832C17.792 39.552 16.464 40.136 15.008 40.584C14.936 40.608 14.844 40.64 14.732 40.68C14.628 40.72 14.52 40.772 14.408 40.836L13.52 40.08ZM25.796 31.56C26.012 31.704 26.26 31.884 26.54 32.1C26.82 32.308 27.104 32.532 27.392 32.772C27.688 33.012 27.968 33.244 28.232 33.468C28.496 33.692 28.708 33.892 28.868 34.068L27.92 35.04C27.768 34.88 27.568 34.688 27.32 34.464C27.072 34.232 26.804 33.996 26.516 33.756C26.236 33.508 25.956 33.276 25.676 33.06C25.396 32.836 25.144 32.648 24.92 32.496L25.796 31.56ZM24.56 39.588C25.232 39.484 25.852 39.348 26.42 39.18C26.988 39.004 27.508 38.808 27.98 38.592C28.46 38.368 28.892 38.14 29.276 37.908C29.916 37.516 30.504 37.064 31.04 36.552C31.584 36.04 32.06 35.512 32.468 34.968C32.876 34.424 33.2 33.896 33.44 33.384L34.172 34.692C33.884 35.212 33.528 35.732 33.104 36.252C32.688 36.772 32.216 37.272 31.688 37.752C31.16 38.224 30.584 38.652 29.96 39.036C29.56 39.284 29.12 39.524 28.64 39.756C28.168 39.988 27.656 40.196 27.104 40.38C26.56 40.564 25.98 40.712 25.364 40.824L24.56 39.588ZM43.004 31.74C43.116 31.892 43.24 32.076 43.376 32.292C43.512 32.5 43.644 32.716 43.772 32.94C43.9 33.156 44.008 33.36 44.096 33.552L43.256 33.924C43.152 33.692 43.044 33.476 42.932 33.276C42.82 33.068 42.704 32.864 42.584 32.664C42.464 32.464 42.336 32.272 42.2 32.088L43.004 31.74ZM44.516 31.116C44.628 31.26 44.752 31.436 44.888 31.644C45.024 31.852 45.16 32.068 45.296 32.292C45.432 32.508 45.548 32.704 45.644 32.88L44.816 33.288C44.704 33.056 44.588 32.84 44.468 32.64C44.356 32.44 44.236 32.244 44.108 32.052C43.98 31.86 43.848 31.672 43.712 31.488L44.516 31.116ZM38.552 39.564C38.552 39.436 38.552 39.2 38.552 38.856C38.552 38.512 38.552 38.108 38.552 37.644C38.552 37.18 38.552 36.692 38.552 36.18C38.552 35.668 38.552 35.176 38.552 34.704C38.552 34.224 38.552 33.8 38.552 33.432C38.552 33.064 38.552 32.796 38.552 32.628C38.552 32.436 38.54 32.216 38.516 31.968C38.5 31.712 38.476 31.484 38.444 31.284H39.92C39.904 31.476 39.884 31.696 39.86 31.944C39.836 32.184 39.824 32.412 39.824 32.628C39.824 32.892 39.824 33.232 39.824 33.648C39.824 34.064 39.824 34.512 39.824 34.992C39.824 35.472 39.824 35.956 39.824 36.444C39.832 36.924 39.836 37.38 39.836 37.812C39.836 38.244 39.836 38.616 39.836 38.928C39.836 39.24 39.836 39.452 39.836 39.564C39.836 39.684 39.836 39.836 39.836 40.02C39.844 40.204 39.856 40.392 39.872 40.584C39.896 40.776 39.912 40.948 39.92 41.1H38.456C38.48 40.884 38.5 40.632 38.516 40.344C38.54 40.056 38.552 39.796 38.552 39.564ZM39.56 34.416C39.952 34.528 40.388 34.668 40.868 34.836C41.356 34.996 41.848 35.168 42.344 35.352C42.848 35.536 43.32 35.724 43.76 35.916C44.208 36.1 44.588 36.268 44.9 36.42L44.372 37.716C44.036 37.54 43.656 37.36 43.232 37.176C42.816 36.984 42.388 36.8 41.948 36.624C41.508 36.448 41.08 36.288 40.664 36.144C40.256 36 39.888 35.876 39.56 35.772V34.416Z" fill="#B9C0C9"/>
</svg>
