<svg width="36" height="44" viewBox="0 0 36 44" fill="none" xmlns="http://www.w3.org/2000/svg">
<path d="M9 12.5L11 10.5M11 10.5L18 3.5L25 10.5M11 10.5V20.5C11 20.7652 11.1054 21.0196 11.2929 21.2071C11.4804 21.3946 11.7348 21.5 12 21.5H15M25 10.5L27 12.5M25 10.5V20.5C25 20.7652 24.8946 21.0196 24.7071 21.2071C24.5196 21.3946 24.2652 21.5 24 21.5H21M15 21.5C15.2652 21.5 15.5196 21.3946 15.7071 21.2071C15.8946 21.0196 16 20.7652 16 20.5V16.5C16 16.2348 16.1054 15.9804 16.2929 15.7929C16.4804 15.6054 16.7348 15.5 17 15.5H19C19.2652 15.5 19.5196 15.6054 19.7071 15.7929C19.8946 15.9804 20 16.2348 20 16.5V20.5C20 20.7652 20.1054 21.0196 20.2929 21.2071C20.4804 21.3946 20.7348 21.5 21 21.5M15 21.5H21" stroke="#31E774" stroke-width="2"/>
<path d="M6.888 30.996C6.88 31.052 6.868 31.14 6.852 31.26C6.836 31.372 6.82 31.492 6.804 31.62C6.796 31.74 6.792 31.848 6.792 31.944C6.792 32.16 6.792 32.408 6.792 32.688C6.792 32.968 6.792 33.248 6.792 33.528C6.792 33.8 6.792 34.04 6.792 34.248C6.792 34.408 6.792 34.64 6.792 34.944C6.792 35.24 6.792 35.576 6.792 35.952C6.792 36.32 6.792 36.704 6.792 37.104C6.792 37.496 6.792 37.88 6.792 38.256C6.792 38.624 6.792 38.952 6.792 39.24C6.792 39.528 6.792 39.752 6.792 39.912C6.792 40.24 6.7 40.492 6.516 40.668C6.34 40.852 6.056 40.944 5.664 40.944C5.48 40.944 5.28 40.94 5.064 40.932C4.856 40.924 4.648 40.912 4.44 40.896C4.232 40.88 4.036 40.864 3.852 40.848L3.744 39.66C4.008 39.708 4.26 39.744 4.5 39.768C4.748 39.784 4.952 39.792 5.112 39.792C5.272 39.792 5.384 39.76 5.448 39.696C5.52 39.624 5.556 39.508 5.556 39.348C5.556 39.26 5.556 39.088 5.556 38.832C5.564 38.568 5.568 38.26 5.568 37.908C5.568 37.556 5.568 37.188 5.568 36.804C5.568 36.42 5.568 36.052 5.568 35.7C5.568 35.348 5.568 35.044 5.568 34.788C5.568 34.524 5.568 34.344 5.568 34.248C5.568 34.112 5.568 33.904 5.568 33.624C5.568 33.344 5.568 33.048 5.568 32.736C5.568 32.424 5.568 32.156 5.568 31.932C5.568 31.796 5.556 31.632 5.532 31.44C5.516 31.24 5.496 31.092 5.472 30.996H6.888ZM1.272 32.976C1.448 33 1.624 33.02 1.8 33.036C1.984 33.044 2.168 33.048 2.352 33.048C2.456 33.048 2.652 33.048 2.94 33.048C3.236 33.048 3.592 33.048 4.008 33.048C4.424 33.048 4.868 33.048 5.34 33.048C5.82 33.048 6.296 33.048 6.768 33.048C7.248 33.048 7.696 33.048 8.112 33.048C8.536 33.048 8.896 33.048 9.192 33.048C9.488 33.048 9.692 33.048 9.804 33.048C9.956 33.048 10.132 33.044 10.332 33.036C10.54 33.02 10.72 33.004 10.872 32.988V34.224C10.704 34.216 10.524 34.212 10.332 34.212C10.14 34.204 9.968 34.2 9.816 34.2C9.704 34.2 9.5 34.2 9.204 34.2C8.908 34.2 8.552 34.2 8.136 34.2C7.72 34.2 7.272 34.2 6.792 34.2C6.32 34.2 5.844 34.2 5.364 34.2C4.892 34.2 4.448 34.2 4.032 34.2C3.616 34.2 3.26 34.2 2.964 34.2C2.668 34.2 2.468 34.2 2.364 34.2C2.18 34.2 1.992 34.204 1.8 34.212C1.616 34.212 1.44 34.22 1.272 34.236V32.976ZM4.164 35.988C4.036 36.252 3.876 36.536 3.684 36.84C3.492 37.144 3.284 37.452 3.06 37.764C2.844 38.076 2.632 38.364 2.424 38.628C2.216 38.892 2.028 39.116 1.86 39.3L0.828 38.604C1.028 38.412 1.232 38.192 1.44 37.944C1.656 37.688 1.868 37.42 2.076 37.14C2.284 36.852 2.476 36.568 2.652 36.288C2.828 36 2.976 35.728 3.096 35.472L4.164 35.988ZM9.24 35.46C9.4 35.652 9.572 35.884 9.756 36.156C9.948 36.42 10.14 36.704 10.332 37.008C10.524 37.304 10.704 37.592 10.872 37.872C11.04 38.152 11.184 38.4 11.304 38.616L10.2 39.228C10.072 38.98 9.924 38.712 9.756 38.424C9.596 38.128 9.424 37.832 9.24 37.536C9.064 37.24 8.884 36.96 8.7 36.696C8.524 36.432 8.36 36.208 8.208 36.024L9.24 35.46ZM13.164 35.148C13.3 35.156 13.464 35.168 13.656 35.184C13.856 35.192 14.068 35.2 14.292 35.208C14.524 35.216 14.744 35.22 14.952 35.22C15.112 35.22 15.332 35.22 15.612 35.22C15.892 35.22 16.208 35.22 16.56 35.22C16.92 35.22 17.296 35.22 17.688 35.22C18.08 35.22 18.468 35.22 18.852 35.22C19.244 35.22 19.612 35.22 19.956 35.22C20.3 35.22 20.604 35.22 20.868 35.22C21.132 35.22 21.336 35.22 21.48 35.22C21.768 35.22 22.028 35.212 22.26 35.196C22.492 35.172 22.68 35.156 22.824 35.148V36.636C22.688 36.628 22.496 36.616 22.248 36.6C22 36.584 21.744 36.576 21.48 36.576C21.344 36.576 21.14 36.576 20.868 36.576C20.604 36.576 20.3 36.576 19.956 36.576C19.612 36.576 19.244 36.576 18.852 36.576C18.468 36.576 18.08 36.576 17.688 36.576C17.296 36.576 16.92 36.576 16.56 36.576C16.208 36.576 15.892 36.576 15.612 36.576C15.332 36.576 15.112 36.576 14.952 36.576C14.624 36.576 14.296 36.584 13.968 36.6C13.64 36.608 13.372 36.62 13.164 36.636V35.148ZM30.0687 31.512C30.0047 31.672 29.9327 31.848 29.8527 32.04C29.7807 32.232 29.7007 32.46 29.6127 32.724C29.5487 32.932 29.4607 33.212 29.3487 33.564C29.2367 33.916 29.1087 34.308 28.9647 34.74C28.8287 35.164 28.6847 35.604 28.5327 36.06C28.3807 36.508 28.2327 36.944 28.0887 37.368C27.9447 37.792 27.8087 38.176 27.6807 38.52C27.5607 38.864 27.4567 39.136 27.3687 39.336L25.9767 39.384C26.0807 39.144 26.2007 38.84 26.3367 38.472C26.4807 38.096 26.6287 37.688 26.7807 37.248C26.9327 36.8 27.0847 36.344 27.2367 35.88C27.3967 35.408 27.5447 34.956 27.6807 34.524C27.8167 34.084 27.9407 33.684 28.0527 33.324C28.1647 32.964 28.2487 32.672 28.3047 32.448C28.3847 32.16 28.4407 31.924 28.4727 31.74C28.5127 31.556 28.5447 31.376 28.5687 31.2L30.0687 31.512ZM32.3007 35.46C32.5087 35.78 32.7367 36.156 32.9847 36.588C33.2407 37.012 33.4927 37.456 33.7407 37.92C33.9887 38.384 34.2167 38.832 34.4247 39.264C34.6407 39.696 34.8127 40.072 34.9407 40.392L33.6687 40.968C33.5407 40.624 33.3767 40.228 33.1767 39.78C32.9847 39.324 32.7687 38.856 32.5287 38.376C32.2967 37.896 32.0607 37.444 31.8207 37.02C31.5807 36.596 31.3527 36.244 31.1367 35.964L32.3007 35.46ZM25.6647 38.988C25.9447 38.98 26.2847 38.96 26.6847 38.928C27.0927 38.896 27.5287 38.856 27.9927 38.808C28.4567 38.76 28.9327 38.712 29.4207 38.664C29.9087 38.616 30.3807 38.564 30.8367 38.508C31.3007 38.452 31.7287 38.4 32.1207 38.352C32.5127 38.304 32.8407 38.26 33.1047 38.22L33.4167 39.42C33.1287 39.452 32.7767 39.492 32.3607 39.54C31.9527 39.588 31.5087 39.64 31.0287 39.696C30.5487 39.752 30.0567 39.808 29.5527 39.864C29.0487 39.92 28.5567 39.976 28.0767 40.032C27.6047 40.08 27.1647 40.124 26.7567 40.164C26.3567 40.204 26.0167 40.236 25.7367 40.26C25.5847 40.276 25.4167 40.3 25.2327 40.332C25.0487 40.356 24.8647 40.38 24.6807 40.404L24.4647 39.012C24.6567 39.012 24.8607 39.012 25.0767 39.012C25.2927 39.004 25.4887 38.996 25.6647 38.988Z" fill="#31E774"/>
</svg>
