<svg width="294" height="294" viewBox="0 0 294 294" fill="none" xmlns="http://www.w3.org/2000/svg">
<path d="M3 268C4.10457 268 5 268.895 5 270V285C5 287.209 6.79086 289 9 289H24C25.1046 289 26 289.895 26 291V292C26 293.105 25.1046 294 24 294H8C3.58172 294 1.61064e-07 290.418 0 286V270C0 268.895 0.895431 268 2 268H3ZM292 268C293.105 268 294 268.895 294 270V286C294 290.418 290.418 294 286 294H270C268.895 294 268 293.105 268 292V291C268 289.895 268.895 289 270 289H285C287.209 289 289 287.209 289 285V270C289 268.895 289.895 268 291 268H292ZM24 0C25.1046 0 26 0.895431 26 2V3C26 4.10457 25.1046 5 24 5H9C6.79086 5 5 6.79086 5 9V24C5 25.1046 4.10457 26 3 26H2C0.895431 26 4.02666e-08 25.1046 0 24V8C0 3.58172 3.58172 1.61064e-07 8 0H24ZM286 0C290.418 0 294 3.58172 294 8V24C294 25.1046 293.105 26 292 26H291C289.895 26 289 25.1046 289 24V9C289 6.79086 287.209 5 285 5H270C268.895 5 268 4.10457 268 3V2C268 0.895431 268.895 4.02666e-08 270 0H286Z" fill="white"/>
</svg>
