<svg width="70" height="70" viewBox="0 0 70 70" fill="none" xmlns="http://www.w3.org/2000/svg">
<rect width="70" height="70" rx="18" fill="#1EDB63"/>
<path d="M29.5383 17.354H20.0591C19.2211 17.354 18.4174 17.692 17.8249 18.2937C17.2323 18.8954 16.8994 19.7114 16.8994 20.5623V30.1873C16.8994 31.0382 17.2323 31.8543 17.8249 32.456C18.4174 33.0576 19.2211 33.3957 20.0591 33.3957H29.5383C30.3763 33.3957 31.18 33.0576 31.7726 32.456C32.3651 31.8543 32.698 31.0382 32.698 30.1873V20.5623C32.698 19.7114 32.3651 18.8954 31.7726 18.2937C31.18 17.692 30.3763 17.354 29.5383 17.354ZM29.5383 30.1873H20.0591V20.5623H29.5383V30.1873ZM29.5383 36.604H20.0591C19.2211 36.604 18.4174 36.942 17.8249 37.5437C17.2323 38.1454 16.8994 38.9614 16.8994 39.8123V49.4373C16.8994 50.2882 17.2323 51.1043 17.8249 51.706C18.4174 52.3076 19.2211 52.6457 20.0591 52.6457H29.5383C30.3763 52.6457 31.18 52.3076 31.7726 51.706C32.3651 51.1043 32.698 50.2882 32.698 49.4373V39.8123C32.698 38.9614 32.3651 38.1454 31.7726 37.5437C31.18 36.942 30.3763 36.604 29.5383 36.604ZM29.5383 49.4373H20.0591V39.8123H29.5383V49.4373ZM48.4966 17.354H39.0175C38.1795 17.354 37.3758 17.692 36.7832 18.2937C36.1906 18.8954 35.8577 19.7114 35.8577 20.5623V30.1873C35.8577 31.0382 36.1906 31.8543 36.7832 32.456C37.3758 33.0576 38.1795 33.3957 39.0175 33.3957H48.4966C49.3346 33.3957 50.1383 33.0576 50.7309 32.456C51.3235 31.8543 51.6564 31.0382 51.6564 30.1873V20.5623C51.6564 19.7114 51.3235 18.8954 50.7309 18.2937C50.1383 17.692 49.3346 17.354 48.4966 17.354ZM48.4966 30.1873H39.0175V20.5623H48.4966V30.1873ZM35.8577 44.6248V38.2082C35.8577 37.7827 36.0242 37.3747 36.3205 37.0739C36.6168 36.773 37.0186 36.604 37.4376 36.604C37.8566 36.604 38.2585 36.773 38.5547 37.0739C38.851 37.3747 39.0175 37.7827 39.0175 38.2082V44.6248C39.0175 45.0503 38.851 45.4583 38.5547 45.7592C38.2585 46.06 37.8566 46.229 37.4376 46.229C37.0186 46.229 36.6168 46.06 36.3205 45.7592C36.0242 45.4583 35.8577 45.0503 35.8577 44.6248ZM51.6564 41.4165C51.6564 41.842 51.4899 42.25 51.1936 42.5508C50.8974 42.8517 50.4955 43.0207 50.0765 43.0207H45.3369V51.0415C45.3369 51.467 45.1705 51.875 44.8742 52.1758C44.5779 52.4767 44.1761 52.6457 43.7571 52.6457H37.4376C37.0186 52.6457 36.6168 52.4767 36.3205 52.1758C36.0242 51.875 35.8577 51.467 35.8577 51.0415C35.8577 50.6161 36.0242 50.208 36.3205 49.9072C36.6168 49.6063 37.0186 49.4373 37.4376 49.4373H42.1772V38.2082C42.1772 37.7827 42.3436 37.3747 42.6399 37.0739C42.9362 36.773 43.338 36.604 43.7571 36.604C44.1761 36.604 44.5779 36.773 44.8742 37.0739C45.1705 37.3747 45.3369 37.7827 45.3369 38.2082V39.8123H50.0765C50.4955 39.8123 50.8974 39.9813 51.1936 40.2822C51.4899 40.583 51.6564 40.9911 51.6564 41.4165ZM51.6564 47.8332V51.0415C51.6564 51.467 51.4899 51.875 51.1936 52.1758C50.8974 52.4767 50.4955 52.6457 50.0765 52.6457C49.6575 52.6457 49.2556 52.4767 48.9594 52.1758C48.6631 51.875 48.4966 51.467 48.4966 51.0415V47.8332C48.4966 47.4077 48.6631 46.9997 48.9594 46.6988C49.2556 46.398 49.6575 46.229 50.0765 46.229C50.4955 46.229 50.8974 46.398 51.1936 46.6988C51.4899 46.9997 51.6564 47.4077 51.6564 47.8332Z" fill="white"/>
</svg>
