<svg width="264" height="264" viewBox="0 0 264 264" fill="none" xmlns="http://www.w3.org/2000/svg">
<g clip-path="url(#clip0_303_1165)">
<path d="M63.7241 0H0V9.10345H63.7241V0Z" fill="#1EDB63"/>
<path d="M136.552 0H127.448V9.10345H136.552V0Z" fill="#1EDB63"/>
<path d="M182.069 0H163.862V9.10345H182.069V0Z" fill="#1EDB63"/>
<path d="M264.001 0H200.276V9.10345H264.001V0Z" fill="#1EDB63"/>
<path d="M9.10345 9.10352H0V18.207H9.10345V9.10352Z" fill="#1EDB63"/>
<path d="M63.7245 9.10352H54.6211V18.207H63.7245V9.10352Z" fill="#1EDB63"/>
<path d="M81.9316 9.10352H72.8281V18.207H81.9316V9.10352Z" fill="#1EDB63"/>
<path d="M100.139 9.10352H91.0352V18.207H100.139V9.10352Z" fill="#1EDB63"/>
<path d="M136.552 9.10352H127.448V18.207H136.552V9.10352Z" fill="#1EDB63"/>
<path d="M172.966 9.10352H163.862V18.207H172.966V9.10352Z" fill="#1EDB63"/>
<path d="M191.173 9.10352H182.069V18.207H191.173V9.10352Z" fill="#1EDB63"/>
<path d="M209.38 9.10352H200.276V18.207H209.38V9.10352Z" fill="#1EDB63"/>
<path d="M264.001 9.10352H254.897V18.207H264.001V9.10352Z" fill="#1EDB63"/>
<path d="M9.10345 18.2068H0V27.3102H9.10345V18.2068Z" fill="#1EDB63"/>
<path d="M45.5174 18.2068H18.207V27.3102H45.5174V18.2068Z" fill="#1EDB63"/>
<path d="M63.7245 18.2068H54.6211V27.3102H63.7245V18.2068Z" fill="#1EDB63"/>
<path d="M109.241 18.2068H100.138V27.3102H109.241V18.2068Z" fill="#1EDB63"/>
<path d="M191.172 18.2068H127.448V27.3102H191.172V18.2068Z" fill="#1EDB63"/>
<path d="M209.38 18.2068H200.276V27.3102H209.38V18.2068Z" fill="#1EDB63"/>
<path d="M245.794 18.2068H218.483V27.3102H245.794V18.2068Z" fill="#1EDB63"/>
<path d="M264.001 18.2068H254.897V27.3102H264.001V18.2068Z" fill="#1EDB63"/>
<path d="M9.10345 27.3103H0V36.4138H9.10345V27.3103Z" fill="#1EDB63"/>
<path d="M45.5174 27.3103H18.207V36.4138H45.5174V27.3103Z" fill="#1EDB63"/>
<path d="M63.7245 27.3103H54.6211V36.4138H63.7245V27.3103Z" fill="#1EDB63"/>
<path d="M100.138 27.3103H81.9307V36.4138H100.138V27.3103Z" fill="#1EDB63"/>
<path d="M118.344 27.3103H109.24V36.4138H118.344V27.3103Z" fill="#1EDB63"/>
<path d="M136.552 27.3103H127.448V36.4138H136.552V27.3103Z" fill="#1EDB63"/>
<path d="M154.758 27.3103H145.654V36.4138H154.758V27.3103Z" fill="#1EDB63"/>
<path d="M182.069 27.3103H163.862V36.4138H182.069V27.3103Z" fill="#1EDB63"/>
<path d="M209.38 27.3103H200.276V36.4138H209.38V27.3103Z" fill="#1EDB63"/>
<path d="M245.794 27.3103H218.483V36.4138H245.794V27.3103Z" fill="#1EDB63"/>
<path d="M264.001 27.3103H254.897V36.4138H264.001V27.3103Z" fill="#1EDB63"/>
<path d="M9.10345 36.4138H0V45.5173H9.10345V36.4138Z" fill="#1EDB63"/>
<path d="M45.5174 36.4138H18.207V45.5173H45.5174V36.4138Z" fill="#1EDB63"/>
<path d="M63.7245 36.4138H54.6211V45.5173H63.7245V36.4138Z" fill="#1EDB63"/>
<path d="M91.0341 36.4138H81.9307V45.5173H91.0341V36.4138Z" fill="#1EDB63"/>
<path d="M118.344 36.4138H109.24V45.5173H118.344V36.4138Z" fill="#1EDB63"/>
<path d="M154.758 36.4138H145.654V45.5173H154.758V36.4138Z" fill="#1EDB63"/>
<path d="M172.966 36.4138H163.862V45.5173H172.966V36.4138Z" fill="#1EDB63"/>
<path d="M209.38 36.4138H200.276V45.5173H209.38V36.4138Z" fill="#1EDB63"/>
<path d="M245.794 36.4138H218.483V45.5173H245.794V36.4138Z" fill="#1EDB63"/>
<path d="M264.001 36.4138H254.897V45.5173H264.001V36.4138Z" fill="#1EDB63"/>
<path d="M9.10345 45.5171H0V54.6205H9.10345V45.5171Z" fill="#1EDB63"/>
<path d="M63.7245 45.5171H54.6211V54.6205H63.7245V45.5171Z" fill="#1EDB63"/>
<path d="M81.9316 45.5171H72.8281V54.6205H81.9316V45.5171Z" fill="#1EDB63"/>
<path d="M136.552 45.5171H91.0352V54.6205H136.552V45.5171Z" fill="#1EDB63"/>
<path d="M191.173 45.5171H163.862V54.6205H191.173V45.5171Z" fill="#1EDB63"/>
<path d="M209.38 45.5171H200.276V54.6205H209.38V45.5171Z" fill="#1EDB63"/>
<path d="M264.001 45.5171H254.897V54.6205H264.001V45.5171Z" fill="#1EDB63"/>
<path d="M63.7241 54.6206H0V63.7241H63.7241V54.6206Z" fill="#1EDB63"/>
<path d="M81.9316 54.6206H72.8281V63.7241H81.9316V54.6206Z" fill="#1EDB63"/>
<path d="M100.139 54.6206H91.0352V63.7241H100.139V54.6206Z" fill="#1EDB63"/>
<path d="M118.344 54.6206H109.24V63.7241H118.344V54.6206Z" fill="#1EDB63"/>
<path d="M136.552 54.6206H127.448V63.7241H136.552V54.6206Z" fill="#1EDB63"/>
<path d="M154.758 54.6206H145.654V63.7241H154.758V54.6206Z" fill="#1EDB63"/>
<path d="M172.966 54.6206H163.862V63.7241H172.966V54.6206Z" fill="#1EDB63"/>
<path d="M191.173 54.6206H182.069V63.7241H191.173V54.6206Z" fill="#1EDB63"/>
<path d="M264.001 54.6206H200.276V63.7241H264.001V54.6206Z" fill="#1EDB63"/>
<path d="M100.138 63.7241H72.8281V72.8276H100.138V63.7241Z" fill="#1EDB63"/>
<path d="M172.966 63.7241H118.346V72.8276H172.966V63.7241Z" fill="#1EDB63"/>
<path d="M72.8279 72.8276H36.4141V81.9311H72.8279V72.8276Z" fill="#1EDB63"/>
<path d="M91.0341 72.8276H81.9307V81.9311H91.0341V72.8276Z" fill="#1EDB63"/>
<path d="M154.759 72.8276H118.346V81.9311H154.759V72.8276Z" fill="#1EDB63"/>
<path d="M172.966 72.8276H163.862V81.9311H172.966V72.8276Z" fill="#1EDB63"/>
<path d="M218.483 72.8276H200.276V81.9311H218.483V72.8276Z" fill="#1EDB63"/>
<path d="M254.896 72.8276H245.793V81.9311H254.896V72.8276Z" fill="#1EDB63"/>
<path d="M36.4129 81.9312H9.10254V91.0346H36.4129V81.9312Z" fill="#1EDB63"/>
<path d="M54.62 81.9312H45.5166V91.0346H54.62V81.9312Z" fill="#1EDB63"/>
<path d="M127.449 81.9312H91.0352V91.0346H127.449V81.9312Z" fill="#1EDB63"/>
<path d="M154.759 81.9312H136.552V91.0346H154.759V81.9312Z" fill="#1EDB63"/>
<path d="M191.172 81.9312H172.965V91.0346H191.172V81.9312Z" fill="#1EDB63"/>
<path d="M227.587 81.9312H200.276V91.0346H227.587V81.9312Z" fill="#1EDB63"/>
<path d="M264 81.9312H245.793V91.0346H264V81.9312Z" fill="#1EDB63"/>
<path d="M45.5174 91.0344H18.207V100.138H45.5174V91.0344Z" fill="#1EDB63"/>
<path d="M63.7245 91.0344H54.6211V100.138H63.7245V91.0344Z" fill="#1EDB63"/>
<path d="M91.035 91.0344H72.8281V100.138H91.035V91.0344Z" fill="#1EDB63"/>
<path d="M145.656 91.0344H118.346V100.138H145.656V91.0344Z" fill="#1EDB63"/>
<path d="M163.863 91.0344H154.76V100.138H163.863V91.0344Z" fill="#1EDB63"/>
<path d="M200.276 91.0344H182.069V100.138H200.276V91.0344Z" fill="#1EDB63"/>
<path d="M227.587 91.0344H218.483V100.138H227.587V91.0344Z" fill="#1EDB63"/>
<path d="M264.001 91.0344H254.897V100.138H264.001V91.0344Z" fill="#1EDB63"/>
<path d="M27.3105 100.138H18.207V109.241H27.3105V100.138Z" fill="#1EDB63"/>
<path d="M100.137 100.138H63.7236V109.241H100.137V100.138Z" fill="#1EDB63"/>
<path d="M136.552 100.138H127.448V109.241H136.552V100.138Z" fill="#1EDB63"/>
<path d="M200.275 100.138H191.172V109.241H200.275V100.138Z" fill="#1EDB63"/>
<path d="M236.69 100.138H218.483V109.241H236.69V100.138Z" fill="#1EDB63"/>
<path d="M264 100.138H245.793V109.241H264V100.138Z" fill="#1EDB63"/>
<path d="M27.3105 109.241H18.207V118.345H27.3105V109.241Z" fill="#1EDB63"/>
<path d="M63.7235 109.241H45.5166V118.345H63.7235V109.241Z" fill="#1EDB63"/>
<path d="M100.138 109.241H81.9307V118.345H100.138V109.241Z" fill="#1EDB63"/>
<path d="M145.655 109.241H127.448V118.345H145.655V109.241Z" fill="#1EDB63"/>
<path d="M182.068 109.241H172.965V118.345H182.068V109.241Z" fill="#1EDB63"/>
<path d="M218.482 109.241H209.379V118.345H218.482V109.241Z" fill="#1EDB63"/>
<path d="M236.689 109.241H227.586V118.345H236.689V109.241Z" fill="#1EDB63"/>
<path d="M264.001 109.241H254.897V118.345H264.001V109.241Z" fill="#1EDB63"/>
<path d="M54.6209 118.345H27.3105V127.448H54.6209V118.345Z" fill="#1EDB63"/>
<path d="M72.8271 118.345H63.7236V127.448H72.8271V118.345Z" fill="#1EDB63"/>
<path d="M91.0341 118.345H81.9307V127.448H91.0341V118.345Z" fill="#1EDB63"/>
<path d="M127.447 118.345H109.24V127.448H127.447V118.345Z" fill="#1EDB63"/>
<path d="M154.759 118.345H136.552V127.448H154.759V118.345Z" fill="#1EDB63"/>
<path d="M209.38 118.345H200.276V127.448H209.38V118.345Z" fill="#1EDB63"/>
<path d="M227.587 118.345H218.483V127.448H227.587V118.345Z" fill="#1EDB63"/>
<path d="M245.793 118.345H236.689V127.448H245.793V118.345Z" fill="#1EDB63"/>
<path d="M264.001 118.345H254.897V127.448H264.001V118.345Z" fill="#1EDB63"/>
<path d="M18.206 127.448H9.10254V136.552H18.206V127.448Z" fill="#1EDB63"/>
<path d="M45.5174 127.448H27.3105V136.552H45.5174V127.448Z" fill="#1EDB63"/>
<path d="M63.7245 127.448H54.6211V136.552H63.7245V127.448Z" fill="#1EDB63"/>
<path d="M91.035 127.448H72.8281V136.552H91.035V127.448Z" fill="#1EDB63"/>
<path d="M109.241 127.448H100.138V136.552H109.241V127.448Z" fill="#1EDB63"/>
<path d="M145.655 127.448H136.552V136.552H145.655V127.448Z" fill="#1EDB63"/>
<path d="M163.863 127.448H154.76V136.552H163.863V127.448Z" fill="#1EDB63"/>
<path d="M191.173 127.448H182.069V136.552H191.173V127.448Z" fill="#1EDB63"/>
<path d="M227.587 127.448H218.483V136.552H227.587V127.448Z" fill="#1EDB63"/>
<path d="M264.001 127.448H254.897V136.552H264.001V127.448Z" fill="#1EDB63"/>
<path d="M36.4139 136.552H18.207V145.655H36.4139V136.552Z" fill="#1EDB63"/>
<path d="M54.62 136.552H45.5166V145.655H54.62V136.552Z" fill="#1EDB63"/>
<path d="M109.242 136.552H72.8281V145.655H109.242V136.552Z" fill="#1EDB63"/>
<path d="M154.758 136.552H145.654V145.655H154.758V136.552Z" fill="#1EDB63"/>
<path d="M191.173 136.552H182.069V145.655H191.173V136.552Z" fill="#1EDB63"/>
<path d="M218.483 136.552H200.276V145.655H218.483V136.552Z" fill="#1EDB63"/>
<path d="M236.689 136.552H227.586V145.655H236.689V136.552Z" fill="#1EDB63"/>
<path d="M264 136.552H245.793V145.655H264V136.552Z" fill="#1EDB63"/>
<path d="M81.9312 145.655H27.3105V154.759H81.9312V145.655Z" fill="#1EDB63"/>
<path d="M100.139 145.655H91.0352V154.759H100.139V145.655Z" fill="#1EDB63"/>
<path d="M136.551 145.655H109.24V154.759H136.551V145.655Z" fill="#1EDB63"/>
<path d="M154.758 145.655H145.654V154.759H154.758V145.655Z" fill="#1EDB63"/>
<path d="M191.172 145.655H172.965V154.759H191.172V145.655Z" fill="#1EDB63"/>
<path d="M18.2069 154.759H0V163.862H18.2069V154.759Z" fill="#1EDB63"/>
<path d="M45.5175 154.759H36.4141V163.862H45.5175V154.759Z" fill="#1EDB63"/>
<path d="M72.8271 154.759H63.7236V163.862H72.8271V154.759Z" fill="#1EDB63"/>
<path d="M100.138 154.759H81.9307V163.862H100.138V154.759Z" fill="#1EDB63"/>
<path d="M118.344 154.759H109.24V163.862H118.344V154.759Z" fill="#1EDB63"/>
<path d="M136.552 154.759H127.448V163.862H136.552V154.759Z" fill="#1EDB63"/>
<path d="M154.758 154.759H145.654V163.862H154.758V154.759Z" fill="#1EDB63"/>
<path d="M182.068 154.759H172.965V163.862H182.068V154.759Z" fill="#1EDB63"/>
<path d="M227.587 154.759H200.276V163.862H227.587V154.759Z" fill="#1EDB63"/>
<path d="M245.793 154.759H236.689V163.862H245.793V154.759Z" fill="#1EDB63"/>
<path d="M264.001 154.759H254.897V163.862H264.001V154.759Z" fill="#1EDB63"/>
<path d="M36.414 163.862H27.3105V172.966H36.414V163.862Z" fill="#1EDB63"/>
<path d="M63.7235 163.862H45.5166V172.966H63.7235V163.862Z" fill="#1EDB63"/>
<path d="M100.138 163.862H81.9307V172.966H100.138V163.862Z" fill="#1EDB63"/>
<path d="M127.447 163.862H109.24V172.966H127.447V163.862Z" fill="#1EDB63"/>
<path d="M145.655 163.862H136.552V172.966H145.655V163.862Z" fill="#1EDB63"/>
<path d="M182.069 163.862H163.862V172.966H182.069V163.862Z" fill="#1EDB63"/>
<path d="M236.69 163.862H218.483V172.966H236.69V163.862Z" fill="#1EDB63"/>
<path d="M264.001 163.862H254.897V172.966H264.001V163.862Z" fill="#1EDB63"/>
<path d="M27.3105 172.966H18.207V182.069H27.3105V172.966Z" fill="#1EDB63"/>
<path d="M45.5175 172.966H36.4141V182.069H45.5175V172.966Z" fill="#1EDB63"/>
<path d="M72.8271 172.966H63.7236V182.069H72.8271V172.966Z" fill="#1EDB63"/>
<path d="M91.0341 172.966H81.9307V182.069H91.0341V172.966Z" fill="#1EDB63"/>
<path d="M145.655 172.966H136.552V182.069H145.655V172.966Z" fill="#1EDB63"/>
<path d="M191.173 172.966H163.862V182.069H191.173V172.966Z" fill="#1EDB63"/>
<path d="M218.482 172.966H209.379V182.069H218.482V172.966Z" fill="#1EDB63"/>
<path d="M264 172.966H245.793V182.069H264V172.966Z" fill="#1EDB63"/>
<path d="M18.2069 182.069H0V191.172H18.2069V182.069Z" fill="#1EDB63"/>
<path d="M72.8269 182.069H45.5166V191.172H72.8269V182.069Z" fill="#1EDB63"/>
<path d="M118.344 182.069H81.9307V191.172H118.344V182.069Z" fill="#1EDB63"/>
<path d="M154.758 182.069H145.654V191.172H154.758V182.069Z" fill="#1EDB63"/>
<path d="M172.966 182.069H163.862V191.172H172.966V182.069Z" fill="#1EDB63"/>
<path d="M236.69 182.069H182.069V191.172H236.69V182.069Z" fill="#1EDB63"/>
<path d="M254.896 182.069H245.793V191.172H254.896V182.069Z" fill="#1EDB63"/>
<path d="M91.035 191.172H72.8281V200.276H91.035V191.172Z" fill="#1EDB63"/>
<path d="M127.447 191.172H109.24V200.276H127.447V191.172Z" fill="#1EDB63"/>
<path d="M191.172 191.172H136.552V200.276H191.172V191.172Z" fill="#1EDB63"/>
<path d="M227.587 191.172H218.483V200.276H227.587V191.172Z" fill="#1EDB63"/>
<path d="M264 191.172H236.689V200.276H264V191.172Z" fill="#1EDB63"/>
<path d="M63.7241 200.276H0V209.379H63.7241V200.276Z" fill="#1EDB63"/>
<path d="M81.9316 200.276H72.8281V209.379H81.9316V200.276Z" fill="#1EDB63"/>
<path d="M109.241 200.276H100.138V209.379H109.241V200.276Z" fill="#1EDB63"/>
<path d="M154.759 200.276H118.346V209.379H154.759V200.276Z" fill="#1EDB63"/>
<path d="M191.172 200.276H172.965V209.379H191.172V200.276Z" fill="#1EDB63"/>
<path d="M209.38 200.276H200.276V209.379H209.38V200.276Z" fill="#1EDB63"/>
<path d="M227.587 200.276H218.483V209.379H227.587V200.276Z" fill="#1EDB63"/>
<path d="M264.001 200.276H254.897V209.379H264.001V200.276Z" fill="#1EDB63"/>
<path d="M9.10345 209.379H0V218.483H9.10345V209.379Z" fill="#1EDB63"/>
<path d="M63.7245 209.379H54.6211V218.483H63.7245V209.379Z" fill="#1EDB63"/>
<path d="M91.035 209.379H72.8281V218.483H91.035V209.379Z" fill="#1EDB63"/>
<path d="M127.449 209.379H118.346V218.483H127.449V209.379Z" fill="#1EDB63"/>
<path d="M145.655 209.379H136.552V218.483H145.655V209.379Z" fill="#1EDB63"/>
<path d="M163.863 209.379H154.76V218.483H163.863V209.379Z" fill="#1EDB63"/>
<path d="M191.172 209.379H172.965V218.483H191.172V209.379Z" fill="#1EDB63"/>
<path d="M236.69 209.379H218.483V218.483H236.69V209.379Z" fill="#1EDB63"/>
<path d="M264.001 209.379H254.897V218.483H264.001V209.379Z" fill="#1EDB63"/>
<path d="M9.10345 218.483H0V227.586H9.10345V218.483Z" fill="#1EDB63"/>
<path d="M45.5174 218.483H18.207V227.586H45.5174V218.483Z" fill="#1EDB63"/>
<path d="M63.7245 218.483H54.6211V227.586H63.7245V218.483Z" fill="#1EDB63"/>
<path d="M81.9316 218.483H72.8281V227.586H81.9316V218.483Z" fill="#1EDB63"/>
<path d="M227.585 218.483H109.24V227.586H227.585V218.483Z" fill="#1EDB63"/>
<path d="M264 218.483H245.793V227.586H264V218.483Z" fill="#1EDB63"/>
<path d="M9.10345 227.586H0V236.69H9.10345V227.586Z" fill="#1EDB63"/>
<path d="M45.5174 227.586H18.207V236.69H45.5174V227.586Z" fill="#1EDB63"/>
<path d="M63.7245 227.586H54.6211V236.69H63.7245V227.586Z" fill="#1EDB63"/>
<path d="M109.242 227.586H91.0352V236.69H109.242V227.586Z" fill="#1EDB63"/>
<path d="M145.655 227.586H136.552V236.69H145.655V227.586Z" fill="#1EDB63"/>
<path d="M172.966 227.586H163.862V236.69H172.966V227.586Z" fill="#1EDB63"/>
<path d="M218.482 227.586H209.379V236.69H218.482V227.586Z" fill="#1EDB63"/>
<path d="M254.896 227.586H245.793V236.69H254.896V227.586Z" fill="#1EDB63"/>
<path d="M9.10345 236.69H0V245.793H9.10345V236.69Z" fill="#1EDB63"/>
<path d="M45.5174 236.69H18.207V245.793H45.5174V236.69Z" fill="#1EDB63"/>
<path d="M63.7245 236.689H54.6211V245.793H63.7245V236.689Z" fill="#1EDB63"/>
<path d="M91.0341 236.69H81.9307V245.793H91.0341V236.69Z" fill="#1EDB63"/>
<path d="M109.241 236.69H100.138V245.793H109.241V236.69Z" fill="#1EDB63"/>
<path d="M136.552 236.689H127.448V245.793H136.552V236.689Z" fill="#1EDB63"/>
<path d="M200.275 236.689H172.965V245.793H200.275V236.689Z" fill="#1EDB63"/>
<path d="M264 236.689H236.689V245.793H264V236.689Z" fill="#1EDB63"/>
<path d="M9.10345 245.793H0V254.897H9.10345V245.793Z" fill="#1EDB63"/>
<path d="M63.7245 245.793H54.6211V254.897H63.7245V245.793Z" fill="#1EDB63"/>
<path d="M118.344 245.793H81.9307V254.897H118.344V245.793Z" fill="#1EDB63"/>
<path d="M145.655 245.793H127.448V254.897H145.655V245.793Z" fill="#1EDB63"/>
<path d="M172.966 245.793H163.862V254.897H172.966V245.793Z" fill="#1EDB63"/>
<path d="M218.482 245.793H209.379V254.897H218.482V245.793Z" fill="#1EDB63"/>
<path d="M236.689 245.793H227.586V254.897H236.689V245.793Z" fill="#1EDB63"/>
<path d="M264 245.793H245.793V254.897H264V245.793Z" fill="#1EDB63"/>
<path d="M63.7241 254.896H0V264H63.7241V254.896Z" fill="#1EDB63"/>
<path d="M118.344 254.896H81.9307V264H118.344V254.896Z" fill="#1EDB63"/>
<path d="M209.38 254.896H163.862V264H209.38V254.896Z" fill="#1EDB63"/>
<path d="M236.69 254.896H218.483V264H236.69V254.896Z" fill="#1EDB63"/>
<path d="M254.896 254.896H245.793V264H254.896V254.896Z" fill="#1EDB63"/>
<rect x="83.5" y="83.5" width="97" height="97" rx="18.5" fill="#2BD954"/>
<rect x="83.5" y="83.5" width="97" height="97" rx="18.5" stroke="white" stroke-width="9"/>
<circle cx="115.5" cy="148.5" r="11" stroke="white" stroke-width="8.25"/>
<circle cx="148.5" cy="148.5" r="11" stroke="white" stroke-width="8.25"/>
<circle cx="115.5" cy="115.5" r="15.125" fill="white"/>
</g>
<defs>
<clipPath id="clip0_303_1165">
<rect width="264" height="264" fill="white"/>
</clipPath>
</defs>
</svg>
