<svg width="32" height="32" viewBox="0 0 32 32" fill="none" xmlns="http://www.w3.org/2000/svg">
<rect width="32" height="32" rx="16" fill="#F3F4F6"/>
<path d="M15.0206 24.3333C14.6456 24.3333 14.3228 24.2083 14.0522 23.9583C13.7817 23.7083 13.6184 23.4027 13.5622 23.0416L13.3747 21.6666C13.1942 21.5972 13.0242 21.5138 12.8647 21.4166C12.7053 21.3194 12.5489 21.2152 12.3956 21.1041L11.1039 21.6458C10.7567 21.7986 10.4095 21.8125 10.0622 21.6875C9.71502 21.5625 9.44418 21.3402 9.24974 21.0208L8.27057 19.3125C8.07613 18.993 8.02057 18.6527 8.10391 18.2916C8.18724 17.9305 8.37474 17.6319 8.66641 17.3958L9.77057 16.5625C9.75668 16.4652 9.74974 16.3713 9.74974 16.2808V15.7183C9.74974 15.6283 9.75668 15.5347 9.77057 15.4375L8.66641 14.6041C8.37474 14.368 8.18724 14.0694 8.10391 13.7083C8.02057 13.3472 8.07613 13.0069 8.27057 12.6875L9.24974 10.9791C9.44418 10.6597 9.71502 10.4375 10.0622 10.3125C10.4095 10.1875 10.7567 10.2013 11.1039 10.3541L12.3956 10.8958C12.5484 10.7847 12.7081 10.6805 12.8747 10.5833C13.0414 10.4861 13.2081 10.4027 13.3747 10.3333L13.5622 8.95829C13.6178 8.59718 13.7811 8.29163 14.0522 8.04163C14.3234 7.79163 14.6461 7.66663 15.0206 7.66663H16.9789C17.3539 7.66663 17.677 7.79163 17.9481 8.04163C18.2192 8.29163 18.3822 8.59718 18.4372 8.95829L18.6247 10.3333C18.8053 10.4027 18.9756 10.4861 19.1356 10.5833C19.2956 10.6805 19.4517 10.7847 19.6039 10.8958L20.8956 10.3541C21.2428 10.2013 21.59 10.1875 21.9372 10.3125C22.2845 10.4375 22.5553 10.6597 22.7497 10.9791L23.7289 12.6875C23.9234 13.0069 23.9789 13.3472 23.8956 13.7083C23.8122 14.0694 23.6247 14.368 23.3331 14.6041L22.2289 15.4375C22.2428 15.5347 22.2497 15.6286 22.2497 15.7191V16.2808C22.2497 16.3713 22.2359 16.4652 22.2081 16.5625L23.3122 17.3958C23.6039 17.6319 23.7914 17.9305 23.8747 18.2916C23.9581 18.6527 23.9025 18.993 23.7081 19.3125L22.7081 21.0208C22.5136 21.3402 22.2428 21.5625 21.8956 21.6875C21.5484 21.8125 21.2011 21.7986 20.8539 21.6458L19.6039 21.1041C19.4511 21.2152 19.2914 21.3194 19.1247 21.4166C18.9581 21.5138 18.7914 21.5972 18.6247 21.6666L18.4372 23.0416C18.3817 23.4027 18.2186 23.7083 17.9481 23.9583C17.6775 24.2083 17.3545 24.3333 16.9789 24.3333H15.0206ZM15.1664 22.6666H16.8122L17.1039 20.4583C17.5345 20.3472 17.9339 20.1841 18.3022 19.9691C18.6706 19.7541 19.0072 19.4936 19.3122 19.1875L21.3747 20.0416L22.1872 18.625L20.3956 17.2708C20.465 17.0763 20.5136 16.8716 20.5414 16.6566C20.5692 16.4416 20.5831 16.2227 20.5831 16C20.5831 15.7772 20.5692 15.5586 20.5414 15.3441C20.5136 15.1297 20.465 14.9247 20.3956 14.7291L22.1872 13.375L21.3747 11.9583L19.3122 12.8333C19.0067 12.5138 18.67 12.2466 18.3022 12.0316C17.9345 11.8166 17.535 11.6533 17.1039 11.5416L16.8331 9.33329H15.1872L14.8956 11.5416C14.465 11.6527 14.0659 11.8161 13.6981 12.0316C13.3303 12.2472 12.9934 12.5075 12.6872 12.8125L10.6247 11.9583L9.81224 13.375L11.6039 14.7083C11.5345 14.9166 11.4859 15.125 11.4581 15.3333C11.4303 15.5416 11.4164 15.7638 11.4164 16C11.4164 16.2222 11.4303 16.4375 11.4581 16.6458C11.4859 16.8541 11.5345 17.0625 11.6039 17.2708L9.81224 18.625L10.6247 20.0416L12.6872 19.1666C12.9928 19.4861 13.3297 19.7536 13.6981 19.9691C14.0664 20.1847 14.4656 20.3477 14.8956 20.4583L15.1664 22.6666ZM16.0414 18.9166C16.847 18.9166 17.5345 18.6319 18.1039 18.0625C18.6734 17.493 18.9581 16.8055 18.9581 16C18.9581 15.1944 18.6734 14.5069 18.1039 13.9375C17.5345 13.368 16.847 13.0833 16.0414 13.0833C15.222 13.0833 14.5311 13.368 13.9689 13.9375C13.4067 14.5069 13.1253 15.1944 13.1247 16C13.1242 16.8055 13.4056 17.493 13.9689 18.0625C14.5322 18.6319 15.2231 18.9166 16.0414 18.9166Z" fill="#9AA7C0"/>
</svg>
