<svg width="72" height="72" viewBox="0 0 72 72" fill="none" xmlns="http://www.w3.org/2000/svg">
<rect x="0.5" y="0.5" width="71" height="71" rx="35.5" stroke="#DFE3E9"/>
<path d="M47 35.0003V47.0003C47 47.5307 46.7893 48.0394 46.4142 48.4145C46.0391 48.7896 45.5304 49.0003 45 49.0003H27C26.4696 49.0003 25.9609 48.7896 25.5858 48.4145C25.2107 48.0394 25 47.5307 25 47.0003V35.0003C25 34.4699 25.2107 33.9612 25.5858 33.5861C25.9609 33.211 26.4696 33.0003 27 33.0003H30C30.2652 33.0003 30.5196 33.1057 30.7071 33.2932C30.8946 33.4807 31 33.7351 31 34.0003C31 34.2655 30.8946 34.5199 30.7071 34.7074C30.5196 34.8949 30.2652 35.0003 30 35.0003H27V47.0003H45V35.0003H42C41.7348 35.0003 41.4804 34.8949 41.2929 34.7074C41.1054 34.5199 41 34.2655 41 34.0003C41 33.7351 41.1054 33.4807 41.2929 33.2932C41.4804 33.1057 41.7348 33.0003 42 33.0003H45C45.5304 33.0003 46.0391 33.211 46.4142 33.5861C46.7893 33.9612 47 34.4699 47 35.0003ZM31.7075 29.7078L35 26.414V38.0003C35 38.2655 35.1054 38.5199 35.2929 38.7074C35.4804 38.8949 35.7348 39.0003 36 39.0003C36.2652 39.0003 36.5196 38.8949 36.7071 38.7074C36.8946 38.5199 37 38.2655 37 38.0003V26.414L40.2925 29.7078C40.4801 29.8954 40.7346 30.0009 41 30.0009C41.2654 30.0009 41.5199 29.8954 41.7075 29.7078C41.8951 29.5202 42.0006 29.2657 42.0006 29.0003C42.0006 28.7349 41.8951 28.4804 41.7075 28.2928L36.7075 23.2928C36.6146 23.1998 36.5043 23.1261 36.3829 23.0757C36.2615 23.0254 36.1314 22.9995 36 22.9995C35.8686 22.9995 35.7385 23.0254 35.6171 23.0757C35.4957 23.1261 35.3854 23.1998 35.2925 23.2928L30.2925 28.2928C30.1049 28.4804 29.9994 28.7349 29.9994 29.0003C29.9994 29.2657 30.1049 29.5202 30.2925 29.7078C30.4801 29.8954 30.7346 30.0009 31 30.0009C31.2654 30.0009 31.5199 29.8954 31.7075 29.7078Z" fill="#6B7280"/>
</svg>
