<svg width="16" height="15" viewBox="0 0 16 15" fill="none" xmlns="http://www.w3.org/2000/svg">
<path d="M12.1754 11.3871C12.2184 11.4307 12.2524 11.4824 12.2757 11.5393C12.2989 11.5962 12.3109 11.6572 12.3109 11.7188C12.3109 11.7804 12.2989 11.8413 12.2757 11.8983C12.2524 11.9552 12.2184 12.0069 12.1754 12.0504C12.1324 12.094 12.0814 12.1285 12.0253 12.1521C11.9691 12.1756 11.909 12.1878 11.8482 12.1878C11.7875 12.1878 11.7273 12.1756 11.6711 12.1521C11.615 12.1285 11.564 12.094 11.521 12.0504L7.68622 8.16271L3.8514 12.0504C3.76463 12.1384 3.64694 12.1878 3.52422 12.1878C3.40151 12.1878 3.28382 12.1384 3.19705 12.0504C3.11027 11.9625 3.06152 11.8432 3.06152 11.7188C3.06152 11.5944 3.11027 11.4751 3.19705 11.3871L7.03244 7.50002L3.19705 3.61291C3.11027 3.52495 3.06152 3.40566 3.06152 3.28127C3.06152 3.15688 3.11027 3.03758 3.19705 2.94963C3.28382 2.86167 3.40151 2.81226 3.52422 2.81226C3.64694 2.81226 3.76463 2.86167 3.8514 2.94963L7.68622 6.83732L11.521 2.94963C11.6078 2.86167 11.7255 2.81226 11.8482 2.81226C11.9709 2.81226 12.0886 2.86167 12.1754 2.94963C12.2622 3.03758 12.3109 3.15688 12.3109 3.28127C12.3109 3.40566 12.2622 3.52495 12.1754 3.61291L8.34 7.50002L12.1754 11.3871Z" fill="#6B7280"/>
</svg>
